<svg xmlns="http://www.w3.org/2000/svg" xmlns:xlink="http://www.w3.org/1999/xlink" width="500" zoomAndPan="magnify" viewBox="0 0 375 374.999991" height="500" preserveAspectRatio="xMidYMid meet" version="1.0"><defs><clipPath id="ecc35fe703"><path d="M 53.246094 63.816406 L 299.773438 63.816406 L 299.773438 337.402344 L 53.246094 337.402344 Z M 53.246094 63.816406 " clip-rule="nonzero"/></clipPath><clipPath id="6604c33332"><path d="M 53.246094 259 L 63 259 L 63 270 L 53.246094 270 Z M 53.246094 259 " clip-rule="nonzero"/></clipPath><clipPath id="76036eadc6"><path d="M 192.503906 44.363281 L 333.796875 44.363281 L 333.796875 185.65625 L 192.503906 185.65625 Z M 192.503906 44.363281 " clip-rule="nonzero"/></clipPath><clipPath id="7d47132703"><path d="M 263.148438 44.363281 C 224.132812 44.363281 192.503906 75.996094 192.503906 115.011719 C 192.503906 154.027344 224.132812 185.65625 263.148438 185.65625 C 302.167969 185.65625 333.796875 154.027344 333.796875 115.011719 C 333.796875 75.996094 302.167969 44.363281 263.148438 44.363281 Z M 263.148438 44.363281 " clip-rule="nonzero"/></clipPath></defs><rect x="-37.5" width="450" fill="#ffffff" y="-37.499999" height="449.999989" fill-opacity="1"/><rect x="-37.5" width="450" fill="#ffffff" y="-37.499999" height="449.999989" fill-opacity="1"/><path fill="#dd151f" d="M 85.171875 196.066406 L 103.417969 196.066406 C 104.015625 196.066406 104.609375 196.007812 105.195312 195.890625 C 105.785156 195.773438 106.355469 195.601562 106.90625 195.375 C 107.460938 195.144531 107.988281 194.863281 108.484375 194.53125 C 108.984375 194.199219 109.445312 193.820312 109.867188 193.394531 C 110.289062 192.972656 110.667969 192.511719 111 192.011719 C 111.335938 191.515625 111.617188 190.988281 111.84375 190.4375 C 112.074219 189.882812 112.246094 189.3125 112.363281 188.726562 C 112.480469 188.136719 112.539062 187.542969 112.539062 186.945312 L 112.539062 168.703125 C 112.539062 168.101562 112.480469 167.507812 112.363281 166.921875 C 112.246094 166.335938 112.074219 165.765625 111.84375 165.210938 C 111.617188 164.65625 111.335938 164.132812 111 163.632812 C 110.667969 163.136719 110.289062 162.675781 109.867188 162.25 C 109.445312 161.828125 108.984375 161.449219 108.484375 161.117188 C 107.988281 160.785156 107.460938 160.503906 106.90625 160.273438 C 106.355469 160.042969 105.785156 159.871094 105.195312 159.753906 C 104.609375 159.636719 104.015625 159.578125 103.417969 159.578125 L 85.171875 159.578125 C 84.574219 159.578125 83.980469 159.636719 83.394531 159.753906 C 82.804688 159.871094 82.234375 160.042969 81.683594 160.273438 C 81.128906 160.503906 80.601562 160.785156 80.105469 161.117188 C 79.605469 161.449219 79.144531 161.828125 78.722656 162.25 C 78.300781 162.675781 77.921875 163.136719 77.589844 163.632812 C 77.253906 164.132812 76.972656 164.65625 76.746094 165.210938 C 76.515625 165.765625 76.34375 166.335938 76.226562 166.921875 C 76.109375 167.507812 76.050781 168.101562 76.050781 168.703125 L 76.050781 186.945312 C 76.050781 187.542969 76.109375 188.136719 76.226562 188.726562 C 76.34375 189.3125 76.515625 189.882812 76.746094 190.4375 C 76.972656 190.988281 77.253906 191.515625 77.589844 192.011719 C 77.921875 192.511719 78.300781 192.972656 78.722656 193.394531 C 79.144531 193.820312 79.605469 194.199219 80.105469 194.53125 C 80.601562 194.863281 81.128906 195.144531 81.683594 195.375 C 82.234375 195.601562 82.804688 195.773438 83.394531 195.890625 C 83.980469 196.007812 84.574219 196.066406 85.171875 196.066406 Z M 85.171875 168.703125 L 103.417969 168.703125 L 103.417969 186.945312 L 85.171875 186.945312 Z M 85.171875 168.703125 " fill-opacity="1" fill-rule="nonzero"/><path fill="#dd151f" d="M 139.90625 196.066406 L 158.148438 196.066406 C 158.746094 196.066406 159.339844 196.007812 159.929688 195.890625 C 160.515625 195.773438 161.085938 195.601562 161.640625 195.375 C 162.191406 195.144531 162.71875 194.863281 163.214844 194.53125 C 163.714844 194.199219 164.175781 193.820312 164.597656 193.394531 C 165.023438 192.972656 165.402344 192.511719 165.734375 192.011719 C 166.066406 191.515625 166.347656 190.988281 166.578125 190.4375 C 166.804688 189.882812 166.980469 189.3125 167.09375 188.726562 C 167.210938 188.136719 167.269531 187.542969 167.269531 186.945312 L 167.269531 168.703125 C 167.269531 168.101562 167.210938 167.507812 167.09375 166.921875 C 166.980469 166.335938 166.804688 165.765625 166.578125 165.210938 C 166.347656 164.65625 166.066406 164.132812 165.734375 163.632812 C 165.402344 163.136719 165.023438 162.675781 164.597656 162.25 C 164.175781 161.828125 163.714844 161.449219 163.214844 161.117188 C 162.71875 160.785156 162.191406 160.503906 161.640625 160.273438 C 161.085938 160.042969 160.515625 159.871094 159.929688 159.753906 C 159.339844 159.636719 158.746094 159.578125 158.148438 159.578125 L 139.90625 159.578125 C 139.304688 159.578125 138.710938 159.636719 138.125 159.753906 C 137.539062 159.871094 136.96875 160.042969 136.414062 160.273438 C 135.859375 160.503906 135.335938 160.785156 134.835938 161.117188 C 134.339844 161.449219 133.878906 161.828125 133.453125 162.25 C 133.03125 162.675781 132.652344 163.136719 132.320312 163.632812 C 131.988281 164.132812 131.707031 164.65625 131.476562 165.210938 C 131.246094 165.765625 131.074219 166.335938 130.957031 166.921875 C 130.839844 167.507812 130.78125 168.101562 130.78125 168.703125 L 130.78125 186.945312 C 130.78125 187.542969 130.839844 188.136719 130.957031 188.726562 C 131.074219 189.3125 131.246094 189.882812 131.476562 190.4375 C 131.707031 190.988281 131.988281 191.515625 132.320312 192.011719 C 132.652344 192.511719 133.03125 192.972656 133.453125 193.394531 C 133.878906 193.820312 134.339844 194.199219 134.835938 194.53125 C 135.335938 194.863281 135.859375 195.144531 136.414062 195.375 C 136.96875 195.601562 137.539062 195.773438 138.125 195.890625 C 138.710938 196.007812 139.304688 196.066406 139.90625 196.066406 Z M 139.90625 168.703125 L 158.148438 168.703125 L 158.148438 186.945312 L 139.90625 186.945312 Z M 139.90625 168.703125 " fill-opacity="1" fill-rule="nonzero"/><path fill="#dd151f" d="M 194.636719 196.066406 L 212.878906 196.066406 C 213.480469 196.066406 214.074219 196.007812 214.660156 195.890625 C 215.246094 195.773438 215.816406 195.601562 216.371094 195.375 C 216.925781 195.144531 217.449219 194.863281 217.949219 194.53125 C 218.445312 194.199219 218.90625 193.820312 219.332031 193.394531 C 219.753906 192.972656 220.132812 192.511719 220.464844 192.011719 C 220.796875 191.515625 221.078125 190.988281 221.308594 190.4375 C 221.539062 189.882812 221.710938 189.3125 221.828125 188.726562 C 221.945312 188.136719 222.003906 187.542969 222.003906 186.945312 L 222.003906 168.703125 C 222.003906 168.101562 221.945312 167.507812 221.828125 166.921875 C 221.710938 166.335938 221.539062 165.765625 221.308594 165.210938 C 221.078125 164.65625 220.796875 164.132812 220.464844 163.632812 C 220.132812 163.136719 219.753906 162.675781 219.332031 162.25 C 218.90625 161.828125 218.445312 161.449219 217.949219 161.117188 C 217.449219 160.785156 216.925781 160.503906 216.371094 160.273438 C 215.816406 160.042969 215.246094 159.871094 214.660156 159.753906 C 214.074219 159.636719 213.480469 159.578125 212.878906 159.578125 L 194.636719 159.578125 C 194.039062 159.578125 193.445312 159.636719 192.855469 159.753906 C 192.269531 159.871094 191.699219 160.042969 191.144531 160.273438 C 190.59375 160.503906 190.066406 160.785156 189.570312 161.117188 C 189.070312 161.449219 188.609375 161.828125 188.1875 162.25 C 187.761719 162.675781 187.382812 163.136719 187.050781 163.632812 C 186.71875 164.132812 186.4375 164.65625 186.210938 165.210938 C 185.980469 165.765625 185.808594 166.335938 185.691406 166.921875 C 185.574219 167.507812 185.515625 168.101562 185.515625 168.703125 L 185.515625 186.945312 C 185.515625 187.542969 185.574219 188.136719 185.691406 188.726562 C 185.808594 189.3125 185.980469 189.882812 186.210938 190.4375 C 186.4375 190.988281 186.71875 191.515625 187.050781 192.011719 C 187.382812 192.511719 187.761719 192.972656 188.1875 193.394531 C 188.609375 193.820312 189.070312 194.199219 189.570312 194.53125 C 190.066406 194.863281 190.59375 195.144531 191.144531 195.375 C 191.699219 195.601562 192.269531 195.773438 192.855469 195.890625 C 193.445312 196.007812 194.039062 196.066406 194.636719 196.066406 Z M 194.636719 168.703125 L 212.878906 168.703125 L 212.878906 186.945312 L 194.636719 186.945312 Z M 194.636719 168.703125 " fill-opacity="1" fill-rule="nonzero"/><path fill="#dd151f" d="M 249.367188 196.066406 L 267.613281 196.066406 C 268.210938 196.066406 268.804688 196.007812 269.390625 195.890625 C 269.980469 195.773438 270.550781 195.601562 271.101562 195.375 C 271.65625 195.144531 272.183594 194.863281 272.679688 194.53125 C 273.179688 194.199219 273.640625 193.820312 274.0625 193.394531 C 274.484375 192.972656 274.863281 192.511719 275.195312 192.011719 C 275.53125 191.515625 275.8125 190.988281 276.039062 190.4375 C 276.269531 189.882812 276.441406 189.3125 276.558594 188.726562 C 276.675781 188.136719 276.734375 187.542969 276.734375 186.945312 L 276.734375 168.703125 C 276.734375 168.101562 276.675781 167.507812 276.558594 166.921875 C 276.441406 166.335938 276.269531 165.765625 276.039062 165.210938 C 275.8125 164.65625 275.53125 164.132812 275.195312 163.632812 C 274.863281 163.136719 274.484375 162.675781 274.0625 162.25 C 273.640625 161.828125 273.179688 161.449219 272.679688 161.117188 C 272.183594 160.785156 271.65625 160.503906 271.101562 160.273438 C 270.550781 160.042969 269.980469 159.871094 269.390625 159.753906 C 268.804688 159.636719 268.210938 159.578125 267.613281 159.578125 L 249.367188 159.578125 C 248.769531 159.578125 248.175781 159.636719 247.589844 159.753906 C 247 159.871094 246.429688 160.042969 245.878906 160.273438 C 245.324219 160.503906 244.796875 160.785156 244.300781 161.117188 C 243.800781 161.449219 243.339844 161.828125 242.917969 162.25 C 242.496094 162.675781 242.117188 163.136719 241.785156 163.632812 C 241.449219 164.132812 241.171875 164.65625 240.941406 165.210938 C 240.710938 165.765625 240.539062 166.335938 240.421875 166.921875 C 240.304688 167.507812 240.246094 168.101562 240.246094 168.703125 L 240.246094 186.945312 C 240.246094 187.542969 240.304688 188.136719 240.421875 188.726562 C 240.539062 189.3125 240.710938 189.882812 240.941406 190.4375 C 241.171875 190.988281 241.449219 191.515625 241.785156 192.011719 C 242.117188 192.511719 242.496094 192.972656 242.917969 193.394531 C 243.339844 193.820312 243.800781 194.199219 244.300781 194.53125 C 244.796875 194.863281 245.324219 195.144531 245.878906 195.375 C 246.429688 195.601562 247 195.773438 247.589844 195.890625 C 248.175781 196.007812 248.769531 196.066406 249.367188 196.066406 Z M 249.367188 168.703125 L 267.613281 168.703125 L 267.613281 186.945312 L 249.367188 186.945312 Z M 249.367188 168.703125 " fill-opacity="1" fill-rule="nonzero"/><path fill="#dd151f" d="M 76.050781 237.117188 C 76.050781 237.714844 76.109375 238.308594 76.226562 238.894531 C 76.34375 239.484375 76.515625 240.054688 76.746094 240.605469 C 76.972656 241.160156 77.253906 241.6875 77.589844 242.183594 C 77.921875 242.683594 78.300781 243.144531 78.722656 243.566406 C 79.144531 243.988281 79.605469 244.367188 80.105469 244.699219 C 80.601562 245.035156 81.128906 245.316406 81.683594 245.542969 C 82.234375 245.773438 82.804688 245.945312 83.394531 246.0625 C 83.980469 246.179688 84.574219 246.238281 85.171875 246.238281 L 103.417969 246.238281 C 104.015625 246.238281 104.609375 246.179688 105.195312 246.0625 C 105.785156 245.945312 106.355469 245.773438 106.90625 245.542969 C 107.460938 245.316406 107.988281 245.035156 108.484375 244.699219 C 108.984375 244.367188 109.445312 243.988281 109.867188 243.566406 C 110.289062 243.144531 110.667969 242.683594 111 242.183594 C 111.335938 241.6875 111.617188 241.160156 111.84375 240.605469 C 112.074219 240.054688 112.246094 239.484375 112.363281 238.894531 C 112.480469 238.308594 112.539062 237.714844 112.539062 237.117188 L 112.539062 218.871094 C 112.539062 218.273438 112.480469 217.679688 112.363281 217.09375 C 112.246094 216.503906 112.074219 215.933594 111.84375 215.382812 C 111.617188 214.828125 111.335938 214.300781 111 213.804688 C 110.667969 213.304688 110.289062 212.84375 109.867188 212.421875 C 109.445312 212 108.984375 211.621094 108.484375 211.289062 C 107.988281 210.953125 107.460938 210.675781 106.90625 210.445312 C 106.355469 210.214844 105.785156 210.042969 105.195312 209.925781 C 104.609375 209.808594 104.015625 209.75 103.417969 209.75 L 85.171875 209.75 C 84.574219 209.75 83.980469 209.808594 83.394531 209.925781 C 82.804688 210.042969 82.234375 210.214844 81.683594 210.445312 C 81.128906 210.675781 80.601562 210.953125 80.105469 211.289062 C 79.605469 211.621094 79.144531 212 78.722656 212.421875 C 78.300781 212.84375 77.921875 213.304688 77.589844 213.804688 C 77.253906 214.300781 76.972656 214.828125 76.746094 215.382812 C 76.515625 215.933594 76.34375 216.503906 76.226562 217.09375 C 76.109375 217.679688 76.050781 218.273438 76.050781 218.871094 Z M 85.171875 218.871094 L 103.417969 218.871094 L 103.417969 237.117188 L 85.171875 237.117188 Z M 85.171875 218.871094 " fill-opacity="1" fill-rule="nonzero"/><path fill="#dd151f" d="M 130.78125 234.835938 C 130.78125 235.433594 130.839844 236.027344 130.957031 236.617188 C 131.074219 237.203125 131.246094 237.773438 131.476562 238.328125 C 131.707031 238.878906 131.988281 239.40625 132.320312 239.902344 C 132.652344 240.402344 133.03125 240.863281 133.453125 241.285156 C 133.878906 241.710938 134.339844 242.085938 134.835938 242.421875 C 135.335938 242.753906 135.859375 243.035156 136.414062 243.261719 C 136.96875 243.492188 137.539062 243.664062 138.125 243.78125 C 138.710938 243.898438 139.304688 243.957031 139.90625 243.957031 L 158.148438 243.957031 C 158.746094 243.957031 159.339844 243.898438 159.929688 243.78125 C 160.515625 243.664062 161.085938 243.492188 161.640625 243.261719 C 162.191406 243.035156 162.71875 242.753906 163.214844 242.421875 C 163.714844 242.085938 164.175781 241.710938 164.597656 241.285156 C 165.023438 240.863281 165.402344 240.402344 165.734375 239.902344 C 166.066406 239.40625 166.347656 238.878906 166.578125 238.328125 C 166.804688 237.773438 166.980469 237.203125 167.09375 236.617188 C 167.210938 236.027344 167.269531 235.433594 167.269531 234.835938 L 167.269531 216.59375 C 167.269531 215.992188 167.210938 215.398438 167.09375 214.8125 C 166.980469 214.226562 166.804688 213.65625 166.578125 213.101562 C 166.347656 212.546875 166.066406 212.023438 165.734375 211.523438 C 165.402344 211.027344 165.023438 210.566406 164.597656 210.140625 C 164.175781 209.71875 163.714844 209.339844 163.214844 209.007812 C 162.71875 208.675781 162.191406 208.394531 161.640625 208.164062 C 161.085938 207.933594 160.515625 207.761719 159.929688 207.644531 C 159.339844 207.527344 158.746094 207.46875 158.148438 207.46875 L 139.90625 207.46875 C 139.304688 207.46875 138.710938 207.527344 138.125 207.644531 C 137.539062 207.761719 136.96875 207.933594 136.414062 208.164062 C 135.859375 208.394531 135.335938 208.675781 134.835938 209.007812 C 134.339844 209.339844 133.878906 209.71875 133.453125 210.140625 C 133.03125 210.566406 132.652344 211.027344 132.320312 211.523438 C 131.988281 212.023438 131.707031 212.546875 131.476562 213.101562 C 131.246094 213.65625 131.074219 214.226562 130.957031 214.8125 C 130.839844 215.398438 130.78125 215.992188 130.78125 216.59375 Z M 139.90625 216.59375 L 158.148438 216.59375 L 158.148438 234.835938 L 139.90625 234.835938 Z M 139.90625 216.59375 " fill-opacity="1" fill-rule="nonzero"/><path fill="#dd151f" d="M 185.515625 234.835938 C 185.515625 235.433594 185.574219 236.027344 185.691406 236.617188 C 185.808594 237.203125 185.980469 237.773438 186.210938 238.328125 C 186.4375 238.878906 186.71875 239.40625 187.050781 239.902344 C 187.382812 240.402344 187.761719 240.863281 188.1875 241.285156 C 188.609375 241.710938 189.070312 242.085938 189.570312 242.421875 C 190.066406 242.753906 190.59375 243.035156 191.144531 243.261719 C 191.699219 243.492188 192.269531 243.664062 192.855469 243.78125 C 193.445312 243.898438 194.039062 243.957031 194.636719 243.957031 L 212.878906 243.957031 C 213.480469 243.957031 214.074219 243.898438 214.660156 243.78125 C 215.246094 243.664062 215.816406 243.492188 216.371094 243.261719 C 216.925781 243.035156 217.449219 242.753906 217.949219 242.421875 C 218.445312 242.085938 218.90625 241.710938 219.332031 241.285156 C 219.753906 240.863281 220.132812 240.402344 220.464844 239.902344 C 220.796875 239.40625 221.078125 238.878906 221.308594 238.328125 C 221.539062 237.773438 221.710938 237.203125 221.828125 236.617188 C 221.945312 236.027344 222.003906 235.433594 222.003906 234.835938 L 222.003906 216.59375 C 222.003906 215.992188 221.945312 215.398438 221.828125 214.8125 C 221.710938 214.226562 221.539062 213.65625 221.308594 213.101562 C 221.078125 212.546875 220.796875 212.023438 220.464844 211.523438 C 220.132812 211.027344 219.753906 210.566406 219.332031 210.140625 C 218.90625 209.71875 218.445312 209.339844 217.949219 209.007812 C 217.449219 208.675781 216.925781 208.394531 216.371094 208.164062 C 215.816406 207.933594 215.246094 207.761719 214.660156 207.644531 C 214.074219 207.527344 213.480469 207.46875 212.878906 207.46875 L 194.636719 207.46875 C 194.039062 207.46875 193.445312 207.527344 192.855469 207.644531 C 192.269531 207.761719 191.699219 207.933594 191.144531 208.164062 C 190.59375 208.394531 190.066406 208.675781 189.570312 209.007812 C 189.070312 209.339844 188.609375 209.71875 188.1875 210.140625 C 187.761719 210.566406 187.382812 211.027344 187.050781 211.523438 C 186.71875 212.023438 186.4375 212.546875 186.210938 213.101562 C 185.980469 213.65625 185.808594 214.226562 185.691406 214.8125 C 185.574219 215.398438 185.515625 215.992188 185.515625 216.59375 Z M 194.636719 216.59375 L 212.878906 216.59375 L 212.878906 234.835938 L 194.636719 234.835938 Z M 194.636719 216.59375 " fill-opacity="1" fill-rule="nonzero"/><path fill="#dd151f" d="M 240.246094 234.835938 C 240.246094 235.433594 240.304688 236.027344 240.421875 236.617188 C 240.539062 237.203125 240.710938 237.773438 240.941406 238.328125 C 241.171875 238.878906 241.449219 239.40625 241.785156 239.902344 C 242.117188 240.402344 242.496094 240.863281 242.917969 241.285156 C 243.339844 241.710938 243.800781 242.085938 244.300781 242.421875 C 244.796875 242.753906 245.324219 243.035156 245.878906 243.261719 C 246.429688 243.492188 247 243.664062 247.589844 243.78125 C 248.175781 243.898438 248.769531 243.957031 249.367188 243.957031 L 267.613281 243.957031 C 268.210938 243.957031 268.804688 243.898438 269.390625 243.78125 C 269.980469 243.664062 270.550781 243.492188 271.101562 243.261719 C 271.65625 243.035156 272.183594 242.753906 272.679688 242.421875 C 273.179688 242.085938 273.640625 241.710938 274.0625 241.285156 C 274.484375 240.863281 274.863281 240.402344 275.195312 239.902344 C 275.53125 239.40625 275.8125 238.878906 276.039062 238.328125 C 276.269531 237.773438 276.441406 237.203125 276.558594 236.617188 C 276.675781 236.027344 276.734375 235.433594 276.734375 234.835938 L 276.734375 216.59375 C 276.734375 215.992188 276.675781 215.398438 276.558594 214.8125 C 276.441406 214.226562 276.269531 213.65625 276.039062 213.101562 C 275.8125 212.546875 275.53125 212.023438 275.195312 211.523438 C 274.863281 211.027344 274.484375 210.566406 274.0625 210.140625 C 273.640625 209.71875 273.179688 209.339844 272.679688 209.007812 C 272.183594 208.675781 271.65625 208.394531 271.101562 208.164062 C 270.550781 207.933594 269.980469 207.761719 269.390625 207.644531 C 268.804688 207.527344 268.210938 207.46875 267.613281 207.46875 L 249.367188 207.46875 C 248.769531 207.46875 248.175781 207.527344 247.589844 207.644531 C 247 207.761719 246.429688 207.933594 245.878906 208.164062 C 245.324219 208.394531 244.796875 208.675781 244.300781 209.007812 C 243.800781 209.339844 243.339844 209.71875 242.917969 210.140625 C 242.496094 210.566406 242.117188 211.027344 241.785156 211.523438 C 241.449219 212.023438 241.171875 212.546875 240.941406 213.101562 C 240.710938 213.65625 240.539062 214.226562 240.421875 214.8125 C 240.304688 215.398438 240.246094 215.992188 240.246094 216.59375 Z M 249.367188 216.59375 L 267.613281 216.59375 L 267.613281 234.835938 L 249.367188 234.835938 Z M 249.367188 216.59375 " fill-opacity="1" fill-rule="nonzero"/><path fill="#dd151f" d="M 76.050781 282.726562 C 76.050781 283.324219 76.109375 283.917969 76.226562 284.503906 C 76.34375 285.09375 76.515625 285.664062 76.746094 286.21875 C 76.972656 286.769531 77.253906 287.296875 77.589844 287.792969 C 77.921875 288.292969 78.300781 288.753906 78.722656 289.175781 C 79.144531 289.601562 79.605469 289.976562 80.105469 290.3125 C 80.601562 290.644531 81.128906 290.925781 81.683594 291.152344 C 82.234375 291.382812 82.804688 291.554688 83.394531 291.671875 C 83.980469 291.789062 84.574219 291.847656 85.171875 291.847656 L 103.417969 291.847656 C 104.015625 291.847656 104.609375 291.789062 105.195312 291.671875 C 105.785156 291.554688 106.355469 291.382812 106.90625 291.152344 C 107.460938 290.925781 107.988281 290.644531 108.484375 290.3125 C 108.984375 289.976562 109.445312 289.601562 109.867188 289.175781 C 110.289062 288.753906 110.667969 288.292969 111 287.792969 C 111.335938 287.296875 111.617188 286.769531 111.84375 286.21875 C 112.074219 285.664062 112.246094 285.09375 112.363281 284.503906 C 112.480469 283.917969 112.539062 283.324219 112.539062 282.726562 L 112.539062 264.480469 C 112.539062 263.882812 112.480469 263.289062 112.363281 262.703125 C 112.246094 262.113281 112.074219 261.542969 111.84375 260.992188 C 111.617188 260.4375 111.335938 259.914062 111 259.414062 C 110.667969 258.917969 110.289062 258.457031 109.867188 258.03125 C 109.445312 257.609375 108.984375 257.230469 108.484375 256.898438 C 107.988281 256.566406 107.460938 256.285156 106.90625 256.054688 C 106.355469 255.824219 105.785156 255.652344 105.195312 255.535156 C 104.609375 255.417969 104.015625 255.359375 103.417969 255.359375 L 85.171875 255.359375 C 84.574219 255.359375 83.980469 255.417969 83.394531 255.535156 C 82.804688 255.652344 82.234375 255.824219 81.683594 256.054688 C 81.128906 256.285156 80.601562 256.566406 80.105469 256.898438 C 79.605469 257.230469 79.144531 257.609375 78.722656 258.03125 C 78.300781 258.457031 77.921875 258.917969 77.589844 259.414062 C 77.253906 259.914062 76.972656 260.4375 76.746094 260.992188 C 76.515625 261.542969 76.34375 262.113281 76.226562 262.703125 C 76.109375 263.289062 76.050781 263.882812 76.050781 264.480469 Z M 85.171875 264.480469 L 103.417969 264.480469 L 103.417969 282.726562 L 85.171875 282.726562 Z M 85.171875 264.480469 " fill-opacity="1" fill-rule="nonzero"/><path fill="#dd151f" d="M 130.78125 282.726562 C 130.78125 283.324219 130.839844 283.917969 130.957031 284.503906 C 131.074219 285.09375 131.246094 285.664062 131.476562 286.21875 C 131.707031 286.769531 131.988281 287.296875 132.320312 287.792969 C 132.652344 288.292969 133.03125 288.753906 133.453125 289.175781 C 133.878906 289.601562 134.339844 289.976562 134.835938 290.3125 C 135.335938 290.644531 135.859375 290.925781 136.414062 291.152344 C 136.96875 291.382812 137.539062 291.554688 138.125 291.671875 C 138.710938 291.789062 139.304688 291.847656 139.90625 291.847656 L 158.148438 291.847656 C 158.746094 291.847656 159.339844 291.789062 159.929688 291.671875 C 160.515625 291.554688 161.085938 291.382812 161.640625 291.152344 C 162.191406 290.925781 162.71875 290.644531 163.214844 290.3125 C 163.714844 289.976562 164.175781 289.601562 164.597656 289.175781 C 165.023438 288.753906 165.402344 288.292969 165.734375 287.792969 C 166.066406 287.296875 166.347656 286.769531 166.578125 286.21875 C 166.804688 285.664062 166.980469 285.09375 167.09375 284.503906 C 167.210938 283.917969 167.269531 283.324219 167.269531 282.726562 L 167.269531 264.480469 C 167.269531 263.882812 167.210938 263.289062 167.09375 262.703125 C 166.980469 262.113281 166.804688 261.542969 166.578125 260.992188 C 166.347656 260.4375 166.066406 259.914062 165.734375 259.414062 C 165.402344 258.917969 165.023438 258.457031 164.597656 258.03125 C 164.175781 257.609375 163.714844 257.230469 163.214844 256.898438 C 162.71875 256.566406 162.191406 256.285156 161.640625 256.054688 C 161.085938 255.824219 160.515625 255.652344 159.929688 255.535156 C 159.339844 255.417969 158.746094 255.359375 158.148438 255.359375 L 139.90625 255.359375 C 139.304688 255.359375 138.710938 255.417969 138.125 255.535156 C 137.539062 255.652344 136.96875 255.824219 136.414062 256.054688 C 135.859375 256.285156 135.335938 256.566406 134.835938 256.898438 C 134.339844 257.230469 133.878906 257.609375 133.453125 258.03125 C 133.03125 258.457031 132.652344 258.917969 132.320312 259.414062 C 131.988281 259.914062 131.707031 260.4375 131.476562 260.992188 C 131.246094 261.542969 131.074219 262.113281 130.957031 262.703125 C 130.839844 263.289062 130.78125 263.882812 130.78125 264.480469 Z M 139.90625 264.480469 L 158.148438 264.480469 L 158.148438 282.726562 L 139.90625 282.726562 Z M 139.90625 264.480469 " fill-opacity="1" fill-rule="nonzero"/><path fill="#dd151f" d="M 185.515625 282.726562 C 185.515625 283.324219 185.574219 283.917969 185.691406 284.503906 C 185.808594 285.09375 185.980469 285.664062 186.210938 286.21875 C 186.4375 286.769531 186.71875 287.296875 187.050781 287.792969 C 187.382812 288.292969 187.761719 288.753906 188.1875 289.175781 C 188.609375 289.601562 189.070312 289.976562 189.570312 290.3125 C 190.066406 290.644531 190.59375 290.925781 191.144531 291.152344 C 191.699219 291.382812 192.269531 291.554688 192.855469 291.671875 C 193.445312 291.789062 194.039062 291.847656 194.636719 291.847656 L 212.878906 291.847656 C 213.480469 291.847656 214.074219 291.789062 214.660156 291.671875 C 215.246094 291.554688 215.816406 291.382812 216.371094 291.152344 C 216.925781 290.925781 217.449219 290.644531 217.949219 290.3125 C 218.445312 289.976562 218.90625 289.601562 219.332031 289.175781 C 219.753906 288.753906 220.132812 288.292969 220.464844 287.792969 C 220.796875 287.296875 221.078125 286.769531 221.308594 286.21875 C 221.539062 285.664062 221.710938 285.09375 221.828125 284.503906 C 221.945312 283.917969 222.003906 283.324219 222.003906 282.726562 L 222.003906 264.480469 C 222.003906 263.882812 221.945312 263.289062 221.828125 262.703125 C 221.710938 262.113281 221.539062 261.542969 221.308594 260.992188 C 221.078125 260.4375 220.796875 259.914062 220.464844 259.414062 C 220.132812 258.917969 219.753906 258.457031 219.332031 258.03125 C 218.90625 257.609375 218.445312 257.230469 217.949219 256.898438 C 217.449219 256.566406 216.925781 256.285156 216.371094 256.054688 C 215.816406 255.824219 215.246094 255.652344 214.660156 255.535156 C 214.074219 255.417969 213.480469 255.359375 212.878906 255.359375 L 194.636719 255.359375 C 194.039062 255.359375 193.445312 255.417969 192.855469 255.535156 C 192.269531 255.652344 191.699219 255.824219 191.144531 256.054688 C 190.59375 256.285156 190.066406 256.566406 189.570312 256.898438 C 189.070312 257.230469 188.609375 257.609375 188.1875 258.03125 C 187.761719 258.457031 187.382812 258.917969 187.050781 259.414062 C 186.71875 259.914062 186.4375 260.4375 186.210938 260.992188 C 185.980469 261.542969 185.808594 262.113281 185.691406 262.703125 C 185.574219 263.289062 185.515625 263.882812 185.515625 264.480469 Z M 194.636719 264.480469 L 212.878906 264.480469 L 212.878906 282.726562 L 194.636719 282.726562 Z M 194.636719 264.480469 " fill-opacity="1" fill-rule="nonzero"/><g clip-path="url(#ecc35fe703)"><path fill="#dd151f" d="M 276.734375 82.042969 L 263.050781 82.042969 L 263.050781 79.761719 C 263.050781 79.238281 263.027344 78.71875 262.972656 78.199219 C 262.921875 77.675781 262.847656 77.160156 262.746094 76.648438 C 262.644531 76.136719 262.515625 75.628906 262.363281 75.128906 C 262.210938 74.628906 262.035156 74.136719 261.835938 73.652344 C 261.636719 73.171875 261.414062 72.699219 261.167969 72.238281 C 260.921875 71.777344 260.652344 71.328125 260.359375 70.894531 C 260.070312 70.457031 259.757812 70.039062 259.429688 69.636719 C 259.097656 69.230469 258.746094 68.84375 258.375 68.472656 C 258.007812 68.105469 257.621094 67.753906 257.214844 67.421875 C 256.8125 67.089844 256.390625 66.78125 255.957031 66.488281 C 255.523438 66.199219 255.074219 65.929688 254.613281 65.683594 C 254.152344 65.4375 253.679688 65.214844 253.195312 65.015625 C 252.714844 64.8125 252.222656 64.636719 251.722656 64.484375 C 251.222656 64.335938 250.714844 64.207031 250.203125 64.105469 C 249.691406 64.003906 249.171875 63.925781 248.652344 63.875 C 248.132812 63.824219 247.609375 63.800781 247.089844 63.800781 C 246.566406 63.800781 246.042969 63.824219 245.523438 63.875 C 245.003906 63.925781 244.488281 64.003906 243.972656 64.105469 C 243.460938 64.207031 242.953125 64.335938 242.453125 64.484375 C 241.953125 64.636719 241.460938 64.8125 240.980469 65.015625 C 240.496094 65.214844 240.023438 65.4375 239.5625 65.683594 C 239.101562 65.929688 238.652344 66.199219 238.21875 66.488281 C 237.785156 66.78125 237.363281 67.089844 236.960938 67.421875 C 236.558594 67.753906 236.167969 68.105469 235.800781 68.472656 C 235.429688 68.84375 235.078125 69.230469 234.75 69.636719 C 234.417969 70.039062 234.105469 70.457031 233.816406 70.894531 C 233.523438 71.328125 233.257812 71.777344 233.007812 72.238281 C 232.761719 72.699219 232.539062 73.171875 232.339844 73.652344 C 232.140625 74.136719 231.964844 74.628906 231.8125 75.128906 C 231.660156 75.628906 231.535156 76.136719 231.429688 76.648438 C 231.328125 77.160156 231.253906 77.675781 231.203125 78.199219 C 231.148438 78.71875 231.125 79.238281 231.125 79.761719 L 231.125 82.042969 L 192.355469 82.042969 L 192.355469 79.761719 C 192.355469 79.238281 192.332031 78.71875 192.277344 78.199219 C 192.226562 77.675781 192.152344 77.160156 192.050781 76.648438 C 191.949219 76.136719 191.820312 75.628906 191.667969 75.128906 C 191.515625 74.628906 191.339844 74.136719 191.140625 73.652344 C 190.941406 73.171875 190.71875 72.699219 190.472656 72.238281 C 190.226562 71.777344 189.957031 71.328125 189.664062 70.894531 C 189.375 70.457031 189.0625 70.039062 188.734375 69.636719 C 188.402344 69.230469 188.050781 68.84375 187.679688 68.472656 C 187.3125 68.105469 186.925781 67.753906 186.519531 67.421875 C 186.117188 67.089844 185.695312 66.78125 185.261719 66.488281 C 184.828125 66.199219 184.378906 65.929688 183.917969 65.683594 C 183.457031 65.4375 182.984375 65.214844 182.5 65.015625 C 182.019531 64.8125 181.527344 64.636719 181.027344 64.484375 C 180.527344 64.335938 180.019531 64.207031 179.507812 64.105469 C 178.996094 64.003906 178.476562 63.925781 177.957031 63.875 C 177.4375 63.824219 176.914062 63.800781 176.394531 63.800781 C 175.871094 63.800781 175.347656 63.824219 174.828125 63.875 C 174.308594 63.925781 173.792969 64.003906 173.277344 64.105469 C 172.765625 64.207031 172.257812 64.335938 171.757812 64.484375 C 171.257812 64.636719 170.765625 64.8125 170.285156 65.015625 C 169.800781 65.214844 169.328125 65.4375 168.867188 65.683594 C 168.40625 65.929688 167.957031 66.199219 167.523438 66.488281 C 167.089844 66.78125 166.667969 67.089844 166.265625 67.421875 C 165.863281 67.753906 165.472656 68.105469 165.105469 68.472656 C 164.734375 68.84375 164.382812 69.230469 164.054688 69.636719 C 163.722656 70.039062 163.410156 70.457031 163.121094 70.894531 C 162.828125 71.328125 162.5625 71.777344 162.3125 72.238281 C 162.066406 72.699219 161.84375 73.171875 161.644531 73.652344 C 161.445312 74.136719 161.269531 74.628906 161.117188 75.128906 C 160.964844 75.628906 160.839844 76.136719 160.734375 76.648438 C 160.632812 77.160156 160.558594 77.675781 160.507812 78.199219 C 160.453125 78.71875 160.429688 79.238281 160.429688 79.761719 L 160.429688 82.042969 L 121.660156 82.042969 L 121.660156 79.761719 C 121.660156 79.238281 121.636719 78.71875 121.582031 78.199219 C 121.53125 77.675781 121.457031 77.160156 121.355469 76.648438 C 121.253906 76.136719 121.125 75.628906 120.972656 75.128906 C 120.820312 74.628906 120.644531 74.136719 120.445312 73.652344 C 120.246094 73.171875 120.023438 72.699219 119.777344 72.238281 C 119.53125 71.777344 119.261719 71.328125 118.96875 70.894531 C 118.679688 70.457031 118.367188 70.039062 118.039062 69.636719 C 117.707031 69.230469 117.355469 68.84375 116.984375 68.472656 C 116.617188 68.105469 116.230469 67.753906 115.824219 67.421875 C 115.421875 67.089844 115 66.78125 114.566406 66.488281 C 114.132812 66.199219 113.683594 65.929688 113.222656 65.683594 C 112.761719 65.4375 112.289062 65.214844 111.804688 65.015625 C 111.324219 64.8125 110.832031 64.636719 110.332031 64.484375 C 109.832031 64.335938 109.324219 64.207031 108.8125 64.105469 C 108.300781 64.003906 107.78125 63.925781 107.261719 63.875 C 106.742188 63.824219 106.21875 63.800781 105.699219 63.800781 C 105.175781 63.800781 104.652344 63.824219 104.132812 63.875 C 103.613281 63.925781 103.097656 64.003906 102.582031 64.105469 C 102.070312 64.207031 101.5625 64.335938 101.0625 64.484375 C 100.5625 64.636719 100.070312 64.8125 99.589844 65.015625 C 99.105469 65.214844 98.632812 65.4375 98.171875 65.683594 C 97.710938 65.929688 97.261719 66.199219 96.828125 66.488281 C 96.394531 66.78125 95.972656 67.089844 95.570312 67.421875 C 95.167969 67.753906 94.777344 68.105469 94.410156 68.472656 C 94.039062 68.84375 93.6875 69.230469 93.359375 69.636719 C 93.027344 70.039062 92.714844 70.457031 92.425781 70.894531 C 92.132812 71.328125 91.867188 71.777344 91.617188 72.238281 C 91.371094 72.699219 91.148438 73.171875 90.949219 73.652344 C 90.75 74.136719 90.574219 74.628906 90.421875 75.128906 C 90.269531 75.628906 90.144531 76.136719 90.039062 76.648438 C 89.9375 77.160156 89.863281 77.675781 89.8125 78.199219 C 89.757812 78.71875 89.734375 79.238281 89.734375 79.761719 L 89.734375 82.042969 L 76.050781 82.042969 C 75.304688 82.042969 74.558594 82.082031 73.816406 82.15625 C 73.074219 82.230469 72.335938 82.339844 71.605469 82.484375 C 70.871094 82.632812 70.148438 82.8125 69.433594 83.03125 C 68.71875 83.25 68.019531 83.5 67.328125 83.785156 C 66.640625 84.074219 65.964844 84.390625 65.304688 84.742188 C 64.648438 85.097656 64.007812 85.480469 63.386719 85.894531 C 62.765625 86.308594 62.167969 86.753906 61.589844 87.226562 C 61.015625 87.703125 60.460938 88.203125 59.933594 88.730469 C 59.40625 89.257812 58.90625 89.8125 58.429688 90.386719 C 57.957031 90.964844 57.511719 91.5625 57.097656 92.183594 C 56.683594 92.804688 56.300781 93.445312 55.945312 94.101562 C 55.59375 94.761719 55.277344 95.433594 54.988281 96.125 C 54.703125 96.816406 54.453125 97.515625 54.234375 98.230469 C 54.015625 98.945312 53.835938 99.667969 53.6875 100.402344 C 53.542969 101.132812 53.433594 101.871094 53.359375 102.613281 C 53.285156 103.355469 53.246094 104.101562 53.246094 104.847656 L 53.246094 246.238281 C 53.246094 246.539062 53.273438 246.835938 53.332031 247.128906 C 53.390625 247.421875 53.480469 247.707031 53.59375 247.984375 C 53.707031 248.261719 53.847656 248.523438 54.015625 248.773438 C 54.179688 249.019531 54.371094 249.25 54.582031 249.464844 C 54.792969 249.675781 55.023438 249.863281 55.273438 250.03125 C 55.523438 250.195312 55.785156 250.335938 56.0625 250.453125 C 56.339844 250.566406 56.625 250.652344 56.917969 250.710938 C 57.210938 250.769531 57.507812 250.800781 57.808594 250.800781 C 58.105469 250.800781 58.402344 250.769531 58.695312 250.710938 C 58.992188 250.652344 59.277344 250.566406 59.550781 250.453125 C 59.828125 250.335938 60.09375 250.195312 60.339844 250.03125 C 60.589844 249.863281 60.820312 249.675781 61.03125 249.464844 C 61.242188 249.25 61.433594 249.019531 61.597656 248.773438 C 61.765625 248.523438 61.90625 248.261719 62.019531 247.984375 C 62.136719 247.707031 62.222656 247.421875 62.28125 247.128906 C 62.339844 246.835938 62.367188 246.539062 62.367188 246.238281 L 62.367188 145.898438 L 290.417969 145.898438 L 290.417969 255.359375 C 290.417969 255.660156 290.386719 255.957031 290.328125 256.25 C 290.269531 256.542969 290.183594 256.828125 290.070312 257.105469 C 289.957031 257.382812 289.816406 257.644531 289.648438 257.894531 C 289.480469 258.144531 289.292969 258.375 289.082031 258.585938 C 288.871094 258.796875 288.640625 258.984375 288.390625 259.152344 C 288.140625 259.320312 287.878906 259.460938 287.601562 259.574219 C 287.324219 259.6875 287.039062 259.773438 286.746094 259.832031 C 286.453125 259.890625 286.15625 259.921875 285.855469 259.921875 L 263.050781 259.921875 C 262.304688 259.921875 261.558594 259.960938 260.816406 260.035156 C 260.074219 260.109375 259.335938 260.21875 258.605469 260.363281 C 257.871094 260.511719 257.148438 260.691406 256.433594 260.910156 C 255.71875 261.125 255.019531 261.378906 254.328125 261.664062 C 253.640625 261.949219 252.964844 262.269531 252.308594 262.621094 C 251.648438 262.976562 251.007812 263.359375 250.386719 263.773438 C 249.769531 264.1875 249.167969 264.632812 248.589844 265.105469 C 248.015625 265.582031 247.460938 266.082031 246.933594 266.609375 C 246.40625 267.136719 245.90625 267.691406 245.433594 268.265625 C 244.957031 268.84375 244.511719 269.441406 244.097656 270.0625 C 243.683594 270.683594 243.300781 271.324219 242.949219 271.980469 C 242.59375 272.640625 242.277344 273.3125 241.988281 274.003906 C 241.703125 274.691406 241.453125 275.394531 241.234375 276.109375 C 241.015625 276.824219 240.835938 277.546875 240.6875 278.277344 C 240.542969 279.011719 240.433594 279.75 240.359375 280.492188 C 240.285156 281.234375 240.246094 281.980469 240.246094 282.726562 L 240.246094 305.53125 C 240.246094 305.832031 240.21875 306.128906 240.160156 306.421875 C 240.101562 306.714844 240.015625 307 239.898438 307.277344 C 239.785156 307.554688 239.644531 307.816406 239.476562 308.066406 C 239.3125 308.3125 239.121094 308.542969 238.910156 308.757812 C 238.699219 308.96875 238.46875 309.15625 238.21875 309.324219 C 237.96875 309.488281 237.707031 309.628906 237.429688 309.746094 C 237.152344 309.859375 236.867188 309.945312 236.574219 310.003906 C 236.28125 310.0625 235.984375 310.09375 235.683594 310.09375 L 76.050781 309.8125 C 75.152344 309.8125 74.261719 309.726562 73.382812 309.550781 C 72.5 309.375 71.644531 309.113281 70.816406 308.769531 C 69.984375 308.425781 69.195312 308.007812 68.449219 307.507812 C 67.703125 307.007812 67.011719 306.441406 66.375 305.804688 C 65.742188 305.167969 65.171875 304.480469 64.675781 303.730469 C 64.175781 302.984375 63.753906 302.195312 63.410156 301.367188 C 63.066406 300.535156 62.804688 299.679688 62.632812 298.800781 C 62.457031 297.917969 62.367188 297.027344 62.367188 296.128906 L 62.367188 282.726562 C 62.367188 282.425781 62.339844 282.128906 62.28125 281.835938 C 62.222656 281.542969 62.136719 281.257812 62.019531 280.980469 C 61.90625 280.703125 61.765625 280.441406 61.597656 280.191406 C 61.433594 279.941406 61.242188 279.710938 61.03125 279.5 C 60.820312 279.289062 60.589844 279.101562 60.339844 278.933594 C 60.09375 278.765625 59.828125 278.628906 59.550781 278.511719 C 59.277344 278.398438 58.992188 278.3125 58.695312 278.253906 C 58.402344 278.195312 58.105469 278.164062 57.808594 278.164062 C 57.507812 278.164062 57.210938 278.195312 56.917969 278.253906 C 56.625 278.3125 56.339844 278.398438 56.0625 278.511719 C 55.785156 278.628906 55.523438 278.765625 55.273438 278.933594 C 55.023438 279.101562 54.792969 279.289062 54.582031 279.5 C 54.371094 279.710938 54.179688 279.941406 54.015625 280.191406 C 53.847656 280.441406 53.707031 280.703125 53.59375 280.980469 C 53.480469 281.257812 53.390625 281.542969 53.332031 281.835938 C 53.273438 282.128906 53.246094 282.425781 53.246094 282.726562 L 53.246094 314.652344 C 53.246094 315.398438 53.285156 316.144531 53.359375 316.886719 C 53.433594 317.628906 53.542969 318.367188 53.6875 319.101562 C 53.835938 319.832031 54.015625 320.554688 54.234375 321.269531 C 54.453125 321.984375 54.703125 322.6875 54.988281 323.375 C 55.277344 324.066406 55.59375 324.738281 55.945312 325.398438 C 56.300781 326.054688 56.683594 326.695312 57.097656 327.316406 C 57.511719 327.9375 57.957031 328.535156 58.429688 329.113281 C 58.90625 329.691406 59.40625 330.242188 59.933594 330.769531 C 60.460938 331.296875 61.015625 331.800781 61.589844 332.273438 C 62.167969 332.746094 62.765625 333.191406 63.386719 333.605469 C 64.007812 334.019531 64.648438 334.40625 65.304688 334.757812 C 65.964844 335.109375 66.640625 335.429688 67.328125 335.714844 C 68.019531 336 68.71875 336.253906 69.433594 336.46875 C 70.148438 336.6875 70.871094 336.867188 71.605469 337.015625 C 72.335938 337.160156 73.074219 337.273438 73.816406 337.34375 C 74.558594 337.417969 75.304688 337.457031 76.050781 337.457031 L 276.734375 337.457031 C 277.480469 337.457031 278.226562 337.417969 278.96875 337.34375 C 279.710938 337.273438 280.449219 337.160156 281.179688 337.015625 C 281.914062 336.867188 282.636719 336.6875 283.351562 336.46875 C 284.066406 336.253906 284.765625 336 285.457031 335.714844 C 286.148438 335.429688 286.820312 335.109375 287.480469 334.757812 C 288.136719 334.40625 288.777344 334.019531 289.398438 333.605469 C 290.019531 333.191406 290.617188 332.746094 291.195312 332.273438 C 291.769531 331.800781 292.324219 331.296875 292.851562 330.769531 C 293.378906 330.242188 293.878906 329.691406 294.355469 329.113281 C 294.828125 328.535156 295.273438 327.9375 295.6875 327.316406 C 296.101562 326.695312 296.484375 326.054688 296.839844 325.398438 C 297.191406 324.738281 297.507812 324.066406 297.796875 323.375 C 298.082031 322.6875 298.332031 321.984375 298.550781 321.269531 C 298.769531 320.554688 298.949219 319.832031 299.097656 319.101562 C 299.242188 318.367188 299.351562 317.628906 299.425781 316.886719 C 299.5 316.144531 299.539062 315.398438 299.539062 314.652344 L 299.539062 104.847656 C 299.539062 104.101562 299.5 103.355469 299.425781 102.613281 C 299.351562 101.871094 299.242188 101.132812 299.097656 100.402344 C 298.949219 99.667969 298.769531 98.945312 298.550781 98.230469 C 298.332031 97.515625 298.082031 96.816406 297.796875 96.125 C 297.507812 95.433594 297.191406 94.761719 296.839844 94.101562 C 296.484375 93.445312 296.101562 92.804688 295.6875 92.183594 C 295.273438 91.5625 294.828125 90.964844 294.355469 90.386719 C 293.878906 89.8125 293.378906 89.257812 292.851562 88.730469 C 292.324219 88.203125 291.769531 87.703125 291.195312 87.226562 C 290.617188 86.753906 290.019531 86.308594 289.398438 85.894531 C 288.777344 85.480469 288.136719 85.097656 287.480469 84.742188 C 286.820312 84.390625 286.148438 84.074219 285.457031 83.785156 C 284.765625 83.5 284.066406 83.25 283.351562 83.03125 C 282.636719 82.8125 281.914062 82.632812 281.179688 82.484375 C 280.449219 82.339844 279.710938 82.230469 278.96875 82.15625 C 278.226562 82.082031 277.480469 82.042969 276.734375 82.042969 Z M 240.246094 79.761719 C 240.246094 79.3125 240.289062 78.867188 240.378906 78.425781 C 240.464844 77.988281 240.59375 77.558594 240.765625 77.144531 C 240.9375 76.730469 241.148438 76.335938 241.398438 75.960938 C 241.648438 75.585938 241.933594 75.242188 242.25 74.925781 C 242.566406 74.605469 242.914062 74.324219 243.285156 74.074219 C 243.660156 73.824219 244.054688 73.613281 244.46875 73.441406 C 244.886719 73.269531 245.3125 73.140625 245.753906 73.050781 C 246.195312 72.964844 246.640625 72.921875 247.089844 72.921875 C 247.539062 72.921875 247.980469 72.964844 248.421875 73.050781 C 248.863281 73.140625 249.292969 73.269531 249.707031 73.441406 C 250.121094 73.613281 250.515625 73.824219 250.890625 74.074219 C 251.261719 74.324219 251.609375 74.605469 251.925781 74.925781 C 252.242188 75.242188 252.527344 75.585938 252.777344 75.960938 C 253.027344 76.335938 253.238281 76.730469 253.410156 77.144531 C 253.582031 77.558594 253.710938 77.988281 253.796875 78.425781 C 253.886719 78.867188 253.929688 79.3125 253.929688 79.761719 L 253.929688 98.007812 C 253.929688 98.457031 253.886719 98.898438 253.796875 99.339844 C 253.710938 99.78125 253.582031 100.210938 253.410156 100.625 C 253.238281 101.039062 253.027344 101.433594 252.777344 101.808594 C 252.527344 102.179688 252.242188 102.527344 251.925781 102.84375 C 251.609375 103.160156 251.261719 103.445312 250.890625 103.695312 C 250.515625 103.945312 250.121094 104.15625 249.707031 104.328125 C 249.292969 104.5 248.863281 104.628906 248.421875 104.714844 C 247.980469 104.804688 247.539062 104.847656 247.089844 104.847656 C 246.640625 104.847656 246.195312 104.804688 245.753906 104.714844 C 245.3125 104.628906 244.886719 104.5 244.46875 104.328125 C 244.054688 104.15625 243.660156 103.945312 243.285156 103.695312 C 242.914062 103.445312 242.566406 103.160156 242.25 102.84375 C 241.933594 102.527344 241.648438 102.179688 241.398438 101.808594 C 241.148438 101.433594 240.9375 101.039062 240.765625 100.625 C 240.59375 100.210938 240.464844 99.78125 240.378906 99.339844 C 240.289062 98.898438 240.246094 98.457031 240.246094 98.007812 Z M 169.550781 79.761719 C 169.550781 79.3125 169.59375 78.867188 169.683594 78.425781 C 169.769531 77.988281 169.898438 77.558594 170.070312 77.144531 C 170.242188 76.730469 170.453125 76.335938 170.703125 75.960938 C 170.953125 75.585938 171.238281 75.242188 171.554688 74.925781 C 171.871094 74.605469 172.21875 74.324219 172.589844 74.074219 C 172.964844 73.824219 173.359375 73.613281 173.773438 73.441406 C 174.191406 73.269531 174.617188 73.140625 175.058594 73.050781 C 175.5 72.964844 175.945312 72.921875 176.394531 72.921875 C 176.84375 72.921875 177.285156 72.964844 177.726562 73.050781 C 178.167969 73.140625 178.597656 73.269531 179.011719 73.441406 C 179.425781 73.613281 179.820312 73.824219 180.195312 74.074219 C 180.566406 74.324219 180.914062 74.605469 181.230469 74.925781 C 181.546875 75.242188 181.832031 75.585938 182.082031 75.960938 C 182.332031 76.335938 182.542969 76.730469 182.714844 77.144531 C 182.886719 77.558594 183.015625 77.988281 183.101562 78.425781 C 183.191406 78.867188 183.234375 79.3125 183.234375 79.761719 L 183.234375 98.007812 C 183.234375 98.457031 183.191406 98.898438 183.101562 99.339844 C 183.015625 99.78125 182.886719 100.210938 182.714844 100.625 C 182.542969 101.039062 182.332031 101.433594 182.082031 101.808594 C 181.832031 102.179688 181.546875 102.527344 181.230469 102.84375 C 180.914062 103.160156 180.566406 103.445312 180.195312 103.695312 C 179.820312 103.945312 179.425781 104.15625 179.011719 104.328125 C 178.597656 104.5 178.167969 104.628906 177.726562 104.714844 C 177.285156 104.804688 176.84375 104.847656 176.394531 104.847656 C 175.945312 104.847656 175.5 104.804688 175.058594 104.714844 C 174.617188 104.628906 174.191406 104.5 173.773438 104.328125 C 173.359375 104.15625 172.964844 103.945312 172.589844 103.695312 C 172.21875 103.445312 171.871094 103.160156 171.554688 102.84375 C 171.238281 102.527344 170.953125 102.179688 170.703125 101.808594 C 170.453125 101.433594 170.242188 101.039062 170.070312 100.625 C 169.898438 100.210938 169.769531 99.78125 169.683594 99.339844 C 169.59375 98.898438 169.550781 98.457031 169.550781 98.007812 Z M 98.855469 79.761719 C 98.855469 79.3125 98.898438 78.867188 98.988281 78.425781 C 99.074219 77.988281 99.203125 77.558594 99.375 77.144531 C 99.546875 76.730469 99.757812 76.335938 100.007812 75.960938 C 100.257812 75.585938 100.542969 75.242188 100.859375 74.925781 C 101.175781 74.605469 101.523438 74.324219 101.894531 74.074219 C 102.269531 73.824219 102.664062 73.613281 103.078125 73.441406 C 103.496094 73.269531 103.921875 73.140625 104.363281 73.050781 C 104.804688 72.964844 105.25 72.921875 105.699219 72.921875 C 106.148438 72.921875 106.589844 72.964844 107.03125 73.050781 C 107.472656 73.140625 107.902344 73.269531 108.316406 73.441406 C 108.730469 73.613281 109.125 73.824219 109.5 74.074219 C 109.871094 74.324219 110.21875 74.605469 110.535156 74.925781 C 110.851562 75.242188 111.136719 75.585938 111.386719 75.960938 C 111.636719 76.335938 111.847656 76.730469 112.019531 77.144531 C 112.191406 77.558594 112.320312 77.988281 112.40625 78.425781 C 112.496094 78.867188 112.539062 79.3125 112.539062 79.761719 L 112.539062 98.007812 C 112.539062 98.457031 112.496094 98.898438 112.40625 99.339844 C 112.320312 99.78125 112.191406 100.210938 112.019531 100.625 C 111.847656 101.039062 111.636719 101.433594 111.386719 101.808594 C 111.136719 102.179688 110.851562 102.527344 110.535156 102.84375 C 110.21875 103.160156 109.871094 103.445312 109.5 103.695312 C 109.125 103.945312 108.730469 104.15625 108.316406 104.328125 C 107.902344 104.5 107.472656 104.628906 107.03125 104.714844 C 106.589844 104.804688 106.148438 104.847656 105.699219 104.847656 C 105.25 104.847656 104.804688 104.804688 104.363281 104.714844 C 103.921875 104.628906 103.496094 104.5 103.078125 104.328125 C 102.664062 104.15625 102.269531 103.945312 101.894531 103.695312 C 101.523438 103.445312 101.175781 103.160156 100.859375 102.84375 C 100.542969 102.527344 100.257812 102.179688 100.007812 101.808594 C 99.757812 101.433594 99.546875 101.039062 99.375 100.625 C 99.203125 100.210938 99.074219 99.78125 98.988281 99.339844 C 98.898438 98.898438 98.855469 98.457031 98.855469 98.007812 Z M 62.367188 136.773438 L 62.367188 104.847656 C 62.367188 103.949219 62.457031 103.058594 62.632812 102.179688 C 62.804688 101.296875 63.066406 100.441406 63.410156 99.613281 C 63.753906 98.78125 64.175781 97.992188 64.675781 97.246094 C 65.171875 96.5 65.742188 95.808594 66.375 95.171875 C 67.011719 94.539062 67.703125 93.96875 68.449219 93.472656 C 69.195312 92.972656 69.984375 92.550781 70.816406 92.207031 C 71.644531 91.863281 72.5 91.601562 73.382812 91.425781 C 74.261719 91.253906 75.152344 91.164062 76.050781 91.164062 L 89.734375 91.164062 L 89.734375 98.007812 C 89.734375 98.527344 89.757812 99.050781 89.8125 99.570312 C 89.863281 100.089844 89.9375 100.609375 90.039062 101.121094 C 90.144531 101.632812 90.269531 102.140625 90.421875 102.640625 C 90.574219 103.140625 90.75 103.632812 90.949219 104.113281 C 91.148438 104.597656 91.371094 105.070312 91.617188 105.53125 C 91.867188 105.992188 92.132812 106.441406 92.425781 106.875 C 92.714844 107.308594 93.027344 107.730469 93.359375 108.132812 C 93.6875 108.539062 94.039062 108.925781 94.410156 109.292969 C 94.777344 109.664062 95.167969 110.015625 95.570312 110.347656 C 95.972656 110.679688 96.394531 110.988281 96.828125 111.28125 C 97.261719 111.570312 97.710938 111.839844 98.171875 112.085938 C 98.632812 112.332031 99.105469 112.554688 99.589844 112.753906 C 100.070312 112.953125 100.5625 113.128906 101.0625 113.28125 C 101.5625 113.433594 102.070312 113.5625 102.582031 113.664062 C 103.097656 113.765625 103.613281 113.839844 104.132812 113.894531 C 104.652344 113.945312 105.175781 113.96875 105.699219 113.96875 C 106.21875 113.96875 106.742188 113.945312 107.261719 113.894531 C 107.78125 113.839844 108.300781 113.765625 108.8125 113.664062 C 109.324219 113.5625 109.832031 113.433594 110.332031 113.28125 C 110.832031 113.128906 111.324219 112.953125 111.804688 112.753906 C 112.289062 112.554688 112.761719 112.332031 113.222656 112.085938 C 113.683594 111.839844 114.132812 111.570312 114.566406 111.28125 C 115 110.988281 115.421875 110.679688 115.824219 110.347656 C 116.230469 110.015625 116.617188 109.664062 116.984375 109.292969 C 117.355469 108.925781 117.707031 108.539062 118.039062 108.132812 C 118.367188 107.730469 118.679688 107.308594 118.96875 106.875 C 119.261719 106.441406 119.53125 105.992188 119.777344 105.53125 C 120.023438 105.070312 120.246094 104.597656 120.445312 104.113281 C 120.644531 103.632812 120.820312 103.140625 120.972656 102.640625 C 121.125 102.140625 121.253906 101.632812 121.355469 101.121094 C 121.457031 100.609375 121.53125 100.089844 121.582031 99.570312 C 121.636719 99.050781 121.660156 98.527344 121.660156 98.007812 L 121.660156 91.164062 L 160.429688 91.164062 L 160.429688 98.007812 C 160.429688 98.527344 160.453125 99.050781 160.507812 99.570312 C 160.558594 100.089844 160.632812 100.609375 160.734375 101.121094 C 160.839844 101.632812 160.964844 102.140625 161.117188 102.640625 C 161.269531 103.140625 161.445312 103.632812 161.644531 104.113281 C 161.84375 104.597656 162.066406 105.070312 162.3125 105.53125 C 162.5625 105.992188 162.828125 106.441406 163.121094 106.875 C 163.410156 107.308594 163.722656 107.730469 164.054688 108.132812 C 164.382812 108.539062 164.734375 108.925781 165.105469 109.292969 C 165.472656 109.664062 165.863281 110.015625 166.265625 110.347656 C 166.667969 110.679688 167.089844 110.988281 167.523438 111.28125 C 167.957031 111.570312 168.40625 111.839844 168.867188 112.085938 C 169.328125 112.332031 169.800781 112.554688 170.285156 112.753906 C 170.765625 112.953125 171.257812 113.128906 171.757812 113.28125 C 172.257812 113.433594 172.765625 113.5625 173.277344 113.664062 C 173.792969 113.765625 174.308594 113.839844 174.828125 113.894531 C 175.347656 113.945312 175.871094 113.96875 176.394531 113.96875 C 176.914062 113.96875 177.4375 113.945312 177.957031 113.894531 C 178.476562 113.839844 178.996094 113.765625 179.507812 113.664062 C 180.019531 113.5625 180.527344 113.433594 181.027344 113.28125 C 181.527344 113.128906 182.019531 112.953125 182.5 112.753906 C 182.984375 112.554688 183.457031 112.332031 183.917969 112.085938 C 184.378906 111.839844 184.828125 111.570312 185.261719 111.28125 C 185.695312 110.988281 186.117188 110.679688 186.519531 110.347656 C 186.925781 110.015625 187.3125 109.664062 187.679688 109.292969 C 188.050781 108.925781 188.402344 108.539062 188.734375 108.132812 C 189.0625 107.730469 189.375 107.308594 189.664062 106.875 C 189.957031 106.441406 190.226562 105.992188 190.472656 105.53125 C 190.71875 105.070312 190.941406 104.597656 191.140625 104.113281 C 191.339844 103.632812 191.515625 103.140625 191.667969 102.640625 C 191.820312 102.140625 191.949219 101.632812 192.050781 101.121094 C 192.152344 100.609375 192.226562 100.089844 192.277344 99.570312 C 192.332031 99.050781 192.355469 98.527344 192.355469 98.007812 L 192.355469 91.164062 L 231.125 91.164062 L 231.125 98.007812 C 231.125 98.527344 231.148438 99.050781 231.203125 99.570312 C 231.253906 100.089844 231.328125 100.609375 231.429688 101.121094 C 231.535156 101.632812 231.660156 102.140625 231.8125 102.640625 C 231.964844 103.140625 232.140625 103.632812 232.339844 104.113281 C 232.539062 104.597656 232.761719 105.070312 233.007812 105.53125 C 233.257812 105.992188 233.523438 106.441406 233.816406 106.875 C 234.105469 107.308594 234.417969 107.730469 234.75 108.132812 C 235.078125 108.539062 235.429688 108.925781 235.800781 109.292969 C 236.167969 109.664062 236.558594 110.015625 236.960938 110.347656 C 237.363281 110.679688 237.785156 110.988281 238.21875 111.28125 C 238.652344 111.570312 239.101562 111.839844 239.5625 112.085938 C 240.023438 112.332031 240.496094 112.554688 240.980469 112.753906 C 241.460938 112.953125 241.953125 113.128906 242.453125 113.28125 C 242.953125 113.433594 243.460938 113.5625 243.972656 113.664062 C 244.488281 113.765625 245.003906 113.839844 245.523438 113.894531 C 246.042969 113.945312 246.566406 113.96875 247.089844 113.96875 C 247.609375 113.96875 248.132812 113.945312 248.652344 113.894531 C 249.171875 113.839844 249.691406 113.765625 250.203125 113.664062 C 250.714844 113.5625 251.222656 113.433594 251.722656 113.28125 C 252.222656 113.128906 252.714844 112.953125 253.195312 112.753906 C 253.679688 112.554688 254.152344 112.332031 254.613281 112.085938 C 255.074219 111.839844 255.523438 111.570312 255.957031 111.28125 C 256.390625 110.988281 256.8125 110.679688 257.214844 110.347656 C 257.621094 110.015625 258.007812 109.664062 258.375 109.292969 C 258.746094 108.925781 259.097656 108.539062 259.429688 108.132812 C 259.757812 107.730469 260.070312 107.308594 260.359375 106.875 C 260.652344 106.441406 260.921875 105.992188 261.167969 105.53125 C 261.414062 105.070312 261.636719 104.597656 261.835938 104.113281 C 262.035156 103.632812 262.210938 103.140625 262.363281 102.640625 C 262.515625 102.140625 262.644531 101.632812 262.746094 101.121094 C 262.847656 100.609375 262.921875 100.089844 262.972656 99.570312 C 263.027344 99.050781 263.050781 98.527344 263.050781 98.007812 L 263.050781 91.164062 L 276.734375 91.164062 C 277.632812 91.164062 278.523438 91.253906 279.402344 91.425781 C 280.285156 91.601562 281.140625 91.863281 281.96875 92.207031 C 282.800781 92.550781 283.589844 92.972656 284.335938 93.472656 C 285.082031 93.96875 285.773438 94.539062 286.410156 95.171875 C 287.046875 95.808594 287.613281 96.5 288.113281 97.246094 C 288.609375 97.992188 289.03125 98.78125 289.375 99.613281 C 289.71875 100.441406 289.980469 101.296875 290.15625 102.179688 C 290.328125 103.058594 290.417969 103.949219 290.417969 104.847656 L 290.417969 136.773438 Z M 249.367188 282.726562 C 249.367188 281.828125 249.457031 280.9375 249.632812 280.058594 C 249.804688 279.175781 250.066406 278.320312 250.410156 277.488281 C 250.753906 276.660156 251.175781 275.871094 251.675781 275.125 C 252.171875 274.378906 252.742188 273.6875 253.375 273.050781 C 254.011719 272.414062 254.703125 271.847656 255.449219 271.347656 C 256.195312 270.851562 256.984375 270.429688 257.816406 270.085938 C 258.644531 269.742188 259.5 269.480469 260.382812 269.304688 C 261.261719 269.132812 262.152344 269.042969 263.050781 269.042969 L 283.976562 269.042969 L 249.367188 303.65625 Z M 276.734375 328.335938 L 76.050781 328.335938 C 75.136719 328.335938 74.230469 328.242188 73.335938 328.058594 C 72.4375 327.875 71.570312 327.605469 70.726562 327.25 C 69.882812 326.890625 69.085938 326.453125 68.332031 325.9375 C 67.574219 325.421875 66.878906 324.835938 66.242188 324.179688 C 65.605469 323.523438 65.039062 322.808594 64.542969 322.039062 C 64.050781 321.269531 63.636719 320.460938 63.300781 319.609375 C 62.96875 318.753906 62.726562 317.878906 62.566406 316.976562 C 62.410156 316.078125 62.34375 315.167969 62.367188 314.253906 C 64.324219 315.757812 66.472656 316.910156 68.804688 317.710938 C 71.140625 318.511719 73.542969 318.921875 76.011719 318.933594 L 237.191406 319.214844 C 238.695312 319.214844 240.183594 319.066406 241.660156 318.773438 C 243.136719 318.480469 244.566406 318.046875 245.957031 317.476562 C 247.347656 316.902344 248.671875 316.195312 249.921875 315.363281 C 251.175781 314.53125 252.332031 313.582031 253.398438 312.519531 L 290.417969 275.503906 L 290.417969 314.652344 C 290.417969 315.550781 290.328125 316.441406 290.15625 317.324219 C 289.980469 318.203125 289.71875 319.058594 289.375 319.890625 C 289.03125 320.71875 288.609375 321.507812 288.109375 322.253906 C 287.613281 323 287.046875 323.691406 286.410156 324.328125 C 285.773438 324.964844 285.082031 325.53125 284.335938 326.03125 C 283.589844 326.527344 282.800781 326.949219 281.96875 327.292969 C 281.140625 327.636719 280.285156 327.898438 279.402344 328.074219 C 278.523438 328.25 277.632812 328.335938 276.734375 328.335938 Z M 276.734375 328.335938 " fill-opacity="1" fill-rule="nonzero"/></g><g clip-path="url(#6604c33332)"><path fill="#dd151f" d="M 62.367188 264.480469 C 62.367188 264.78125 62.339844 265.078125 62.28125 265.371094 C 62.222656 265.664062 62.136719 265.949219 62.019531 266.226562 C 61.90625 266.503906 61.765625 266.765625 61.597656 267.015625 C 61.433594 267.265625 61.242188 267.496094 61.03125 267.707031 C 60.820312 267.917969 60.589844 268.109375 60.339844 268.273438 C 60.09375 268.441406 59.828125 268.582031 59.550781 268.695312 C 59.277344 268.8125 58.992188 268.898438 58.695312 268.957031 C 58.402344 269.015625 58.105469 269.042969 57.808594 269.042969 C 57.507812 269.042969 57.210938 269.015625 56.917969 268.957031 C 56.625 268.898438 56.339844 268.8125 56.0625 268.695312 C 55.785156 268.582031 55.523438 268.441406 55.273438 268.273438 C 55.023438 268.109375 54.792969 267.917969 54.582031 267.707031 C 54.371094 267.496094 54.179688 267.265625 54.015625 267.015625 C 53.847656 266.765625 53.707031 266.503906 53.59375 266.226562 C 53.480469 265.949219 53.390625 265.664062 53.332031 265.371094 C 53.273438 265.078125 53.246094 264.78125 53.246094 264.480469 C 53.246094 264.183594 53.273438 263.886719 53.332031 263.59375 C 53.390625 263.296875 53.480469 263.011719 53.59375 262.738281 C 53.707031 262.460938 53.847656 262.199219 54.015625 261.949219 C 54.179688 261.699219 54.371094 261.46875 54.582031 261.257812 C 54.792969 261.046875 55.023438 260.855469 55.273438 260.691406 C 55.523438 260.523438 55.785156 260.382812 56.0625 260.269531 C 56.339844 260.152344 56.625 260.066406 56.917969 260.007812 C 57.210938 259.949219 57.507812 259.921875 57.808594 259.921875 C 58.105469 259.921875 58.402344 259.949219 58.695312 260.007812 C 58.992188 260.066406 59.277344 260.152344 59.550781 260.269531 C 59.828125 260.382812 60.09375 260.523438 60.339844 260.691406 C 60.589844 260.855469 60.820312 261.046875 61.03125 261.257812 C 61.242188 261.46875 61.433594 261.699219 61.597656 261.949219 C 61.765625 262.199219 61.90625 262.460938 62.019531 262.738281 C 62.136719 263.011719 62.222656 263.296875 62.28125 263.59375 C 62.339844 263.886719 62.367188 264.183594 62.367188 264.480469 Z M 62.367188 264.480469 " fill-opacity="1" fill-rule="nonzero"/></g><g clip-path="url(#76036eadc6)"><g clip-path="url(#7d47132703)"><path fill="#ffffff" d="M 192.503906 44.363281 L 333.796875 44.363281 L 333.796875 185.65625 L 192.503906 185.65625 Z M 192.503906 44.363281 " fill-opacity="1" fill-rule="nonzero"/></g></g><path fill="#c3262e" d="M 269.488281 63.898438 L 269.488281 61.351562 C 269.488281 61.042969 269.457031 60.738281 269.398438 60.433594 C 269.339844 60.132812 269.25 59.835938 269.128906 59.550781 C 269.011719 59.265625 268.867188 58.996094 268.695312 58.738281 C 268.523438 58.480469 268.328125 58.242188 268.109375 58.023438 C 267.890625 57.804688 267.652344 57.609375 267.398438 57.441406 C 267.140625 57.269531 266.867188 57.121094 266.582031 57.003906 C 266.296875 56.886719 266.003906 56.796875 265.699219 56.738281 C 265.398438 56.675781 265.089844 56.644531 264.78125 56.644531 C 264.472656 56.644531 264.167969 56.675781 263.863281 56.738281 C 263.5625 56.796875 263.265625 56.886719 262.980469 57.003906 C 262.695312 57.121094 262.425781 57.269531 262.167969 57.441406 C 261.910156 57.609375 261.671875 57.804688 261.453125 58.023438 C 261.234375 58.242188 261.042969 58.480469 260.871094 58.738281 C 260.699219 58.996094 260.550781 59.265625 260.433594 59.550781 C 260.316406 59.835938 260.226562 60.132812 260.167969 60.433594 C 260.105469 60.738281 260.078125 61.042969 260.078125 61.351562 L 260.078125 63.898438 C 260.078125 64.207031 260.105469 64.511719 260.167969 64.816406 C 260.226562 65.117188 260.316406 65.414062 260.433594 65.699219 C 260.550781 65.984375 260.699219 66.253906 260.871094 66.511719 C 261.042969 66.769531 261.234375 67.007812 261.453125 67.226562 C 261.671875 67.445312 261.910156 67.640625 262.167969 67.8125 C 262.425781 67.984375 262.695312 68.128906 262.980469 68.246094 C 263.265625 68.363281 263.5625 68.453125 263.863281 68.511719 C 264.167969 68.574219 264.472656 68.605469 264.78125 68.605469 C 265.089844 68.605469 265.398438 68.574219 265.699219 68.511719 C 266.003906 68.453125 266.296875 68.363281 266.582031 68.246094 C 266.867188 68.128906 267.140625 67.984375 267.398438 67.8125 C 267.652344 67.640625 267.890625 67.445312 268.109375 67.226562 C 268.328125 67.007812 268.523438 66.769531 268.695312 66.511719 C 268.867188 66.253906 269.011719 65.984375 269.128906 65.699219 C 269.25 65.414062 269.339844 65.117188 269.398438 64.816406 C 269.457031 64.511719 269.488281 64.207031 269.488281 63.898438 Z M 269.488281 63.898438 " fill-opacity="1" fill-rule="nonzero"/><path fill="#c3262e" d="M 264.78125 160.464844 C 264.472656 160.464844 264.164062 160.496094 263.859375 160.554688 C 263.554688 160.617188 263.261719 160.707031 262.972656 160.828125 C 262.6875 160.945312 262.414062 161.09375 262.15625 161.265625 C 261.898438 161.4375 261.660156 161.636719 261.441406 161.855469 C 261.222656 162.078125 261.027344 162.316406 260.855469 162.574219 C 260.6875 162.832031 260.542969 163.105469 260.425781 163.394531 C 260.308594 163.683594 260.21875 163.976562 260.160156 164.285156 C 260.101562 164.589844 260.074219 164.894531 260.078125 165.207031 L 260.078125 167.75 C 260.078125 168.058594 260.105469 168.367188 260.167969 168.667969 C 260.226562 168.972656 260.316406 169.265625 260.433594 169.550781 C 260.550781 169.835938 260.699219 170.109375 260.871094 170.367188 C 261.042969 170.621094 261.234375 170.859375 261.453125 171.078125 C 261.671875 171.296875 261.910156 171.492188 262.167969 171.664062 C 262.425781 171.835938 262.695312 171.980469 262.980469 172.097656 C 263.265625 172.21875 263.5625 172.308594 263.863281 172.367188 C 264.167969 172.425781 264.472656 172.457031 264.78125 172.457031 C 265.089844 172.457031 265.398438 172.425781 265.699219 172.367188 C 266.003906 172.308594 266.296875 172.21875 266.582031 172.097656 C 266.867188 171.980469 267.140625 171.835938 267.398438 171.664062 C 267.652344 171.492188 267.890625 171.296875 268.109375 171.078125 C 268.328125 170.859375 268.523438 170.621094 268.695312 170.367188 C 268.867188 170.109375 269.011719 169.835938 269.128906 169.550781 C 269.25 169.265625 269.339844 168.972656 269.398438 168.667969 C 269.457031 168.367188 269.488281 168.058594 269.488281 167.75 L 269.488281 165.207031 C 269.492188 164.894531 269.46875 164.585938 269.410156 164.28125 C 269.351562 163.976562 269.265625 163.675781 269.148438 163.390625 C 269.035156 163.101562 268.890625 162.828125 268.71875 162.566406 C 268.546875 162.308594 268.351562 162.066406 268.132812 161.84375 C 267.914062 161.625 267.675781 161.425781 267.417969 161.253906 C 267.15625 161.082031 266.886719 160.9375 266.597656 160.816406 C 266.308594 160.699219 266.011719 160.609375 265.707031 160.550781 C 265.402344 160.492188 265.09375 160.460938 264.78125 160.464844 Z M 264.78125 160.464844 " fill-opacity="1" fill-rule="nonzero"/><path fill="#c3262e" d="M 315.402344 109.8125 C 315.09375 109.8125 314.785156 109.839844 314.484375 109.902344 C 314.179688 109.960938 313.886719 110.050781 313.601562 110.167969 C 313.316406 110.289062 313.042969 110.433594 312.789062 110.605469 C 312.53125 110.777344 312.292969 110.972656 312.074219 111.1875 C 311.855469 111.40625 311.660156 111.644531 311.488281 111.902344 C 311.316406 112.160156 311.171875 112.429688 311.054688 112.714844 C 310.9375 113 310.847656 113.296875 310.785156 113.597656 C 310.726562 113.902344 310.695312 114.207031 310.695312 114.515625 C 310.695312 114.824219 310.726562 115.132812 310.785156 115.433594 C 310.847656 115.738281 310.9375 116.03125 311.054688 116.316406 C 311.171875 116.605469 311.316406 116.875 311.488281 117.132812 C 311.660156 117.390625 311.855469 117.625 312.074219 117.84375 C 312.292969 118.0625 312.53125 118.257812 312.789062 118.429688 C 313.042969 118.601562 313.316406 118.746094 313.601562 118.863281 C 313.886719 118.984375 314.179688 119.074219 314.484375 119.132812 C 314.785156 119.191406 315.09375 119.222656 315.402344 119.222656 L 317.980469 119.222656 C 318.289062 119.222656 318.597656 119.191406 318.898438 119.132812 C 319.203125 119.074219 319.496094 118.984375 319.78125 118.863281 C 320.070312 118.746094 320.339844 118.601562 320.597656 118.429688 C 320.851562 118.257812 321.089844 118.0625 321.308594 117.84375 C 321.527344 117.625 321.722656 117.390625 321.894531 117.132812 C 322.066406 116.875 322.210938 116.605469 322.328125 116.316406 C 322.449219 116.03125 322.539062 115.738281 322.597656 115.433594 C 322.65625 115.132812 322.6875 114.824219 322.6875 114.515625 C 322.6875 114.207031 322.65625 113.902344 322.597656 113.597656 C 322.539062 113.296875 322.449219 113 322.328125 112.714844 C 322.210938 112.429688 322.066406 112.160156 321.894531 111.902344 C 321.722656 111.644531 321.527344 111.40625 321.308594 111.1875 C 321.089844 110.972656 320.851562 110.777344 320.597656 110.605469 C 320.339844 110.433594 320.070312 110.289062 319.78125 110.167969 C 319.496094 110.050781 319.203125 109.960938 318.898438 109.902344 C 318.597656 109.839844 318.289062 109.8125 317.980469 109.8125 Z M 315.402344 109.8125 " fill-opacity="1" fill-rule="nonzero"/><path fill="#c3262e" d="M 211.617188 109.8125 C 211.308594 109.8125 211.003906 109.839844 210.699219 109.902344 C 210.398438 109.960938 210.101562 110.050781 209.816406 110.167969 C 209.53125 110.289062 209.261719 110.433594 209.003906 110.605469 C 208.746094 110.777344 208.507812 110.972656 208.289062 111.1875 C 208.070312 111.40625 207.875 111.644531 207.703125 111.902344 C 207.535156 112.160156 207.386719 112.429688 207.269531 112.714844 C 207.152344 113 207.0625 113.296875 207.003906 113.597656 C 206.941406 113.902344 206.910156 114.207031 206.910156 114.515625 C 206.910156 114.824219 206.941406 115.132812 207.003906 115.433594 C 207.0625 115.738281 207.152344 116.03125 207.269531 116.316406 C 207.386719 116.605469 207.535156 116.875 207.703125 117.132812 C 207.875 117.390625 208.070312 117.625 208.289062 117.84375 C 208.507812 118.0625 208.746094 118.257812 209.003906 118.429688 C 209.261719 118.601562 209.53125 118.746094 209.816406 118.863281 C 210.101562 118.984375 210.398438 119.074219 210.699219 119.132812 C 211.003906 119.191406 211.308594 119.222656 211.617188 119.222656 L 214.164062 119.222656 C 214.472656 119.222656 214.777344 119.191406 215.082031 119.132812 C 215.382812 119.074219 215.679688 118.984375 215.964844 118.863281 C 216.25 118.746094 216.519531 118.601562 216.777344 118.429688 C 217.035156 118.257812 217.273438 118.0625 217.492188 117.84375 C 217.710938 117.625 217.90625 117.390625 218.078125 117.132812 C 218.246094 116.875 218.394531 116.605469 218.511719 116.316406 C 218.628906 116.03125 218.71875 115.738281 218.777344 115.433594 C 218.839844 115.132812 218.871094 114.824219 218.871094 114.515625 C 218.871094 114.207031 218.839844 113.902344 218.777344 113.597656 C 218.71875 113.296875 218.628906 113 218.511719 112.714844 C 218.394531 112.429688 218.246094 112.160156 218.078125 111.902344 C 217.90625 111.644531 217.710938 111.40625 217.492188 111.1875 C 217.273438 110.972656 217.035156 110.777344 216.777344 110.605469 C 216.519531 110.433594 216.25 110.289062 215.964844 110.167969 C 215.679688 110.050781 215.382812 109.960938 215.082031 109.902344 C 214.777344 109.839844 214.472656 109.8125 214.164062 109.8125 Z M 211.617188 109.8125 " fill-opacity="1" fill-rule="nonzero"/><path fill="#c3262e" d="M 334.019531 89.382812 C 333.914062 89.089844 333.785156 88.808594 333.625 88.542969 C 333.464844 88.277344 333.285156 88.03125 333.074219 87.800781 C 332.867188 87.570312 332.636719 87.363281 332.390625 87.179688 C 332.140625 86.996094 331.875 86.835938 331.59375 86.707031 C 331.3125 86.574219 331.023438 86.472656 330.722656 86.398438 C 330.421875 86.324219 330.117188 86.28125 329.804688 86.269531 C 329.496094 86.257812 329.1875 86.273438 328.882812 86.324219 C 328.574219 86.371094 328.277344 86.449219 327.988281 86.558594 C 327.695312 86.664062 327.417969 86.796875 327.152344 86.957031 C 326.890625 87.117188 326.644531 87.300781 326.414062 87.507812 C 326.1875 87.714844 325.980469 87.945312 325.796875 88.195312 C 325.613281 88.445312 325.457031 88.707031 325.324219 88.988281 C 325.195312 89.269531 325.089844 89.558594 325.019531 89.859375 C 324.945312 90.160156 324.898438 90.464844 324.886719 90.773438 C 324.871094 91.082031 324.886719 91.390625 324.933594 91.695312 C 324.980469 92 325.058594 92.296875 325.164062 92.589844 C 327.757812 99.667969 329.050781 106.976562 329.03125 114.515625 C 329.035156 115.75 329 116.984375 328.929688 118.214844 C 328.859375 119.449219 328.753906 120.675781 328.613281 121.902344 C 328.472656 123.128906 328.296875 124.347656 328.089844 125.5625 C 327.878906 126.78125 327.632812 127.988281 327.351562 129.191406 C 327.070312 130.390625 326.757812 131.585938 326.40625 132.769531 C 326.058594 133.949219 325.675781 135.125 325.257812 136.285156 C 324.84375 137.445312 324.390625 138.59375 323.910156 139.730469 C 323.425781 140.867188 322.910156 141.988281 322.363281 143.09375 C 321.816406 144.199219 321.238281 145.289062 320.628906 146.359375 C 320.019531 147.433594 319.378906 148.488281 318.707031 149.523438 C 318.039062 150.558594 317.335938 151.574219 316.609375 152.570312 C 315.878906 153.5625 315.121094 154.539062 314.335938 155.488281 C 313.550781 156.441406 312.742188 157.371094 311.902344 158.273438 C 311.0625 159.179688 310.199219 160.058594 309.308594 160.914062 C 308.421875 161.769531 307.507812 162.597656 306.570312 163.402344 C 305.632812 164.203125 304.675781 164.980469 303.691406 165.726562 C 302.710938 166.476562 301.707031 167.195312 300.683594 167.882812 C 299.664062 168.574219 298.621094 169.234375 297.558594 169.863281 C 296.5 170.492188 295.421875 171.089844 294.324219 171.660156 C 293.230469 172.226562 292.117188 172.761719 290.992188 173.265625 C 289.867188 173.769531 288.726562 174.242188 287.570312 174.679688 C 286.417969 175.117188 285.253906 175.519531 284.078125 175.890625 C 282.898438 176.261719 281.714844 176.601562 280.515625 176.902344 C 279.320312 177.203125 278.117188 177.472656 276.90625 177.707031 C 275.695312 177.941406 274.476562 178.136719 273.253906 178.300781 C 272.03125 178.464844 270.804688 178.59375 269.574219 178.683594 C 268.34375 178.777344 267.113281 178.835938 265.878906 178.855469 C 264.644531 178.878906 263.410156 178.863281 262.179688 178.816406 C 260.945312 178.765625 259.714844 178.679688 258.488281 178.5625 C 257.257812 178.441406 256.035156 178.285156 254.816406 178.09375 C 253.597656 177.902344 252.386719 177.679688 251.179688 177.417969 C 249.972656 177.15625 248.777344 176.863281 247.585938 176.535156 C 246.398438 176.203125 245.21875 175.839844 244.050781 175.445312 C 242.882812 175.046875 241.726562 174.617188 240.582031 174.152344 C 239.441406 173.6875 238.3125 173.191406 237.195312 172.664062 C 236.082031 172.132812 234.984375 171.574219 233.898438 170.980469 C 232.816406 170.390625 231.753906 169.765625 230.707031 169.113281 C 229.660156 168.460938 228.632812 167.777344 227.625 167.066406 C 226.617188 166.351562 225.632812 165.613281 224.667969 164.84375 C 223.703125 164.074219 222.761719 163.277344 221.84375 162.453125 C 220.921875 161.628906 220.027344 160.78125 219.160156 159.90625 C 218.289062 159.03125 217.445312 158.132812 216.628906 157.207031 C 215.808594 156.285156 215.019531 155.339844 214.253906 154.367188 C 213.492188 153.398438 212.753906 152.410156 212.050781 151.398438 C 211.34375 150.386719 210.664062 149.355469 210.019531 148.304688 C 209.371094 147.253906 208.753906 146.1875 208.167969 145.101562 C 207.582031 144.015625 207.027344 142.914062 206.507812 141.796875 C 205.984375 140.675781 205.496094 139.546875 205.039062 138.398438 C 204.582031 137.253906 204.15625 136.09375 203.765625 134.925781 C 203.375 133.753906 203.019531 132.574219 202.695312 131.382812 C 202.375 130.191406 202.085938 128.992188 201.832031 127.785156 C 201.578125 126.578125 201.359375 125.363281 201.175781 124.144531 C 200.992188 122.921875 200.84375 121.699219 200.734375 120.46875 C 200.621094 119.242188 200.542969 118.011719 200.5 116.777344 C 200.457031 115.542969 200.449219 114.3125 200.480469 113.078125 C 200.507812 111.84375 200.574219 110.613281 200.671875 109.382812 C 200.773438 108.152344 200.90625 106.925781 201.078125 105.703125 C 201.25 104.484375 201.453125 103.265625 201.695312 102.058594 C 201.933594 100.847656 202.210938 99.644531 202.519531 98.449219 C 202.828125 97.253906 203.171875 96.070312 203.550781 94.898438 C 203.929688 93.722656 204.339844 92.558594 204.785156 91.410156 C 205.230469 90.257812 205.707031 89.121094 206.214844 87.996094 C 206.726562 86.875 207.269531 85.765625 207.84375 84.671875 C 208.417969 83.582031 209.023438 82.507812 209.65625 81.449219 C 210.292969 80.390625 210.960938 79.355469 211.65625 78.335938 C 212.351562 77.316406 213.074219 76.316406 213.828125 75.339844 C 214.582031 74.363281 215.363281 73.410156 216.171875 72.476562 C 216.980469 71.542969 217.8125 70.636719 218.671875 69.75 C 219.535156 68.867188 220.417969 68.007812 221.328125 67.175781 C 222.238281 66.339844 223.171875 65.535156 224.128906 64.753906 C 225.085938 63.976562 226.0625 63.222656 227.0625 62.5 C 228.0625 61.777344 229.082031 61.082031 230.121094 60.417969 C 231.160156 59.753906 232.21875 59.121094 233.292969 58.515625 C 234.371094 57.914062 235.460938 57.339844 236.570312 56.800781 C 237.679688 56.257812 238.804688 55.75 239.941406 55.273438 C 241.082031 54.796875 242.230469 54.355469 243.394531 53.945312 C 244.558594 53.535156 245.734375 53.160156 246.917969 52.816406 C 248.105469 52.476562 249.300781 52.167969 250.503906 51.894531 C 251.707031 51.621094 252.914062 51.382812 254.132812 51.179688 C 255.347656 50.976562 256.570312 50.804688 257.796875 50.671875 C 259.023438 50.539062 260.253906 50.441406 261.484375 50.378906 C 262.71875 50.316406 263.953125 50.289062 265.183594 50.296875 C 266.417969 50.304688 267.652344 50.351562 268.882812 50.429688 C 270.113281 50.507812 271.34375 50.625 272.566406 50.773438 C 273.792969 50.921875 275.011719 51.109375 276.226562 51.328125 C 277.4375 51.550781 278.644531 51.804688 279.84375 52.09375 C 281.042969 52.382812 282.234375 52.707031 283.414062 53.066406 C 284.59375 53.425781 285.765625 53.816406 286.921875 54.242188 C 288.082031 54.667969 289.226562 55.125 290.359375 55.617188 C 291.488281 56.109375 292.605469 56.632812 293.707031 57.1875 C 294.808594 57.742188 295.894531 58.332031 296.960938 58.949219 C 298.027344 59.566406 299.078125 60.214844 300.109375 60.894531 C 301.140625 61.574219 302.148438 62.28125 303.136719 63.019531 C 304.128906 63.753906 305.097656 64.519531 306.042969 65.3125 C 306.988281 66.105469 307.910156 66.925781 308.808594 67.769531 C 309.707031 68.613281 310.578125 69.484375 311.429688 70.382812 L 264.957031 108.3125 L 250.664062 95.238281 C 250.25 94.855469 249.78125 94.558594 249.257812 94.34375 C 248.734375 94.132812 248.191406 94.019531 247.628906 94.003906 C 247.0625 93.984375 246.515625 94.070312 245.980469 94.253906 C 245.449219 94.433594 244.964844 94.707031 244.527344 95.0625 C 244.089844 95.421875 243.722656 95.84375 243.4375 96.328125 C 243.148438 96.816406 242.957031 97.339844 242.855469 97.894531 C 242.757812 98.453125 242.757812 99.007812 242.859375 99.566406 C 242.960938 100.121094 243.15625 100.644531 243.445312 101.128906 L 260.878906 130.101562 C 261.253906 130.722656 261.75 131.234375 262.363281 131.632812 C 262.972656 132.03125 263.640625 132.273438 264.363281 132.367188 L 264.921875 132.367188 C 265.578125 132.382812 266.207031 132.269531 266.816406 132.019531 C 267.421875 131.769531 267.953125 131.410156 268.410156 130.9375 L 333.566406 64.699219 C 333.792969 64.492188 334 64.261719 334.183594 64.011719 C 334.367188 63.765625 334.523438 63.5 334.65625 63.21875 C 334.789062 62.941406 334.890625 62.648438 334.964844 62.351562 C 335.039062 62.050781 335.085938 61.746094 335.097656 61.4375 C 335.113281 61.125 335.097656 60.820312 335.050781 60.511719 C 335.003906 60.207031 334.929688 59.910156 334.824219 59.617188 C 334.71875 59.328125 334.585938 59.046875 334.429688 58.785156 C 334.269531 58.519531 334.085938 58.273438 333.875 58.042969 C 333.667969 57.8125 333.441406 57.609375 333.191406 57.425781 C 332.941406 57.242188 332.675781 57.082031 332.398438 56.949219 C 332.117188 56.820312 331.828125 56.714844 331.527344 56.640625 C 331.226562 56.566406 330.921875 56.523438 330.613281 56.507812 C 330.304688 56.492188 329.996094 56.507812 329.691406 56.554688 C 329.386719 56.601562 329.085938 56.675781 328.796875 56.78125 C 328.503906 56.882812 328.226562 57.015625 327.960938 57.175781 C 327.695312 57.335938 327.449219 57.519531 327.21875 57.726562 L 318.992188 64.457031 C 317.972656 63.363281 316.917969 62.300781 315.832031 61.273438 C 314.746094 60.246094 313.632812 59.25 312.484375 58.292969 C 311.339844 57.332031 310.164062 56.410156 308.960938 55.519531 C 307.757812 54.632812 306.527344 53.78125 305.273438 52.96875 C 304.015625 52.15625 302.738281 51.382812 301.433594 50.648438 C 300.132812 49.917969 298.808594 49.222656 297.464844 48.570312 C 296.117188 47.917969 294.753906 47.304688 293.371094 46.734375 C 291.988281 46.167969 290.589844 45.640625 289.175781 45.15625 C 287.761719 44.671875 286.332031 44.234375 284.890625 43.835938 C 283.449219 43.441406 281.996094 43.089844 280.53125 42.78125 C 279.070312 42.472656 277.597656 42.210938 276.117188 41.996094 C 274.636719 41.777344 273.152344 41.605469 271.664062 41.480469 C 270.171875 41.355469 268.679688 41.273438 267.1875 41.238281 C 265.691406 41.203125 264.195312 41.214844 262.703125 41.273438 C 261.207031 41.332031 259.71875 41.433594 258.230469 41.582031 C 256.742188 41.730469 255.257812 41.921875 253.785156 42.164062 C 252.308594 42.402344 250.839844 42.6875 249.382812 43.015625 C 247.921875 43.34375 246.476562 43.71875 245.039062 44.136719 C 243.605469 44.554688 242.183594 45.015625 240.773438 45.519531 C 239.367188 46.023438 237.976562 46.570312 236.601562 47.160156 C 235.230469 47.75 233.875 48.382812 232.539062 49.054688 C 231.203125 49.730469 229.890625 50.441406 228.597656 51.195312 C 227.308594 51.949219 226.039062 52.742188 224.796875 53.574219 C 223.554688 54.40625 222.335938 55.273438 221.148438 56.179688 C 219.957031 57.085938 218.796875 58.027344 217.664062 59.003906 C 216.53125 59.980469 215.429688 60.992188 214.363281 62.035156 C 213.292969 63.078125 212.253906 64.15625 211.25 65.261719 C 210.246094 66.371094 209.277344 67.507812 208.339844 68.675781 C 207.40625 69.84375 206.507812 71.039062 205.648438 72.261719 C 204.785156 73.484375 203.964844 74.730469 203.179688 76.003906 C 202.394531 77.277344 201.648438 78.570312 200.941406 79.890625 C 200.238281 81.207031 199.574219 82.546875 198.949219 83.90625 C 198.328125 85.265625 197.746094 86.640625 197.207031 88.035156 C 196.667969 89.433594 196.171875 90.839844 195.71875 92.265625 C 195.265625 93.691406 194.855469 95.128906 194.492188 96.578125 C 194.128906 98.03125 193.808594 99.488281 193.53125 100.960938 C 193.257812 102.429688 193.027344 103.90625 192.84375 105.390625 C 192.660156 106.875 192.519531 108.363281 192.425781 109.855469 C 192.332031 111.347656 192.285156 112.839844 192.28125 114.335938 C 192.28125 115.832031 192.324219 117.324219 192.414062 118.816406 C 192.503906 120.3125 192.640625 121.800781 192.820312 123.285156 C 193 124.769531 193.226562 126.246094 193.5 127.714844 C 193.769531 129.1875 194.085938 130.648438 194.445312 132.097656 C 194.808594 133.550781 195.210938 134.988281 195.660156 136.414062 C 196.109375 137.839844 196.601562 139.25 197.136719 140.648438 C 197.675781 142.042969 198.25 143.421875 198.871094 144.78125 C 199.492188 146.144531 200.152344 147.484375 200.855469 148.804688 C 201.558594 150.125 202.296875 151.421875 203.082031 152.695312 C 203.863281 153.972656 204.683594 155.222656 205.539062 156.445312 C 206.398438 157.671875 207.292969 158.867188 208.222656 160.039062 C 209.15625 161.207031 210.121094 162.347656 211.125 163.457031 C 212.125 164.566406 213.160156 165.648438 214.226562 166.695312 C 215.292969 167.742188 216.394531 168.753906 217.523438 169.734375 C 218.652344 170.714844 219.8125 171.660156 221 172.566406 C 222.1875 173.476562 223.398438 174.347656 224.640625 175.183594 C 225.882812 176.015625 227.148438 176.8125 228.4375 177.570312 C 229.726562 178.324219 231.039062 179.042969 232.371094 179.71875 C 233.703125 180.394531 235.058594 181.03125 236.429688 181.625 C 237.800781 182.21875 239.191406 182.769531 240.597656 183.277344 C 242.003906 183.785156 243.425781 184.25 244.859375 184.671875 C 246.292969 185.09375 247.742188 185.472656 249.199219 185.804688 C 250.65625 186.136719 252.121094 186.425781 253.597656 186.667969 C 255.074219 186.910156 256.554688 187.109375 258.042969 187.261719 C 259.53125 187.414062 261.019531 187.519531 262.515625 187.578125 C 264.007812 187.640625 265.503906 187.65625 267 187.625 C 268.492188 187.59375 269.984375 187.515625 271.476562 187.394531 C 272.964844 187.273438 274.453125 187.105469 275.933594 186.890625 C 277.410156 186.679688 278.882812 186.421875 280.347656 186.117188 C 281.8125 185.8125 283.265625 185.464844 284.707031 185.074219 C 286.152344 184.679688 287.582031 184.246094 288.996094 183.765625 C 290.414062 183.285156 291.8125 182.761719 293.199219 182.195312 C 294.582031 181.628906 295.949219 181.023438 297.292969 180.371094 C 298.640625 179.722656 299.964844 179.03125 301.269531 178.300781 C 302.574219 177.570312 303.855469 176.800781 305.113281 175.992188 C 306.371094 175.183594 307.601562 174.335938 308.808594 173.449219 C 310.015625 172.566406 311.191406 171.644531 312.339844 170.6875 C 313.488281 169.730469 314.609375 168.742188 315.695312 167.714844 C 316.785156 166.691406 317.839844 165.632812 318.863281 164.542969 C 319.886719 163.453125 320.878906 162.332031 321.832031 161.179688 C 322.785156 160.03125 323.707031 158.851562 324.589844 157.644531 C 325.472656 156.4375 326.316406 155.203125 327.121094 153.945312 C 327.929688 152.6875 328.699219 151.402344 329.425781 150.097656 C 330.15625 148.792969 330.84375 147.464844 331.488281 146.117188 C 332.136719 144.769531 332.742188 143.402344 333.304688 142.019531 C 333.871094 140.632812 334.390625 139.230469 334.867188 137.816406 C 335.34375 136.398438 335.777344 134.96875 336.167969 133.523438 C 336.558594 132.082031 336.90625 130.625 337.207031 129.160156 C 337.507812 127.695312 337.761719 126.222656 337.972656 124.742188 C 338.183594 123.265625 338.347656 121.777344 338.46875 120.289062 C 338.585938 118.796875 338.660156 117.304688 338.691406 115.808594 C 338.71875 114.3125 338.699219 112.820312 338.636719 111.324219 C 338.574219 109.832031 338.464844 108.339844 338.308594 106.855469 C 338.15625 105.367188 337.953125 103.886719 337.710938 102.410156 C 337.464844 100.9375 337.171875 99.46875 336.839844 98.011719 C 336.503906 96.554688 336.125 95.109375 335.699219 93.675781 C 335.277344 92.242188 334.808594 90.820312 334.296875 89.417969 Z M 334.019531 89.382812 " fill-opacity="1" fill-rule="nonzero"/></svg>